<?xml version="1.0" encoding="UTF-8" standalone="no"?>
<!DOCTYPE svg PUBLIC "-//W3C//DTD SVG 1.1//EN"
 "http://www.w3.org/Graphics/SVG/1.1/DTD/svg11.dtd">
<!-- Generated by graphviz version 3.0.0 (20220226.1711)
 -->
<!-- Title: unnamed Pages: 1 -->
<svg width="100%" height="100%" xmlns="http://www.w3.org/2000/svg" xmlns:xlink="http://www.w3.org/1999/xlink">
<script type="text/ecmascript"><![CDATA[
/**
 *  SVGPan library 1.2.2
 * ======================
 *
 * Given an unique existing element with id "viewport" (or when missing, the
 * first g-element), including the library into any SVG adds the following
 * capabilities:
 *
 *  - Mouse panning
 *  - Mouse zooming (using the wheel)
 *  - Object dragging
 *
 * You can configure the behaviour of the pan/zoom/drag with the variables
 * listed in the CONFIGURATION section of this file.
 *
 * Known issues:
 *
 *  - Zooming (while panning) on Safari has still some issues
 *
 * Releases:
 *
 * 1.2.2, Tue Aug 30 17:21:56 CEST 2011, Andrea Leofreddi
 *	- Fixed viewBox on root tag (#7)
 *	- Improved zoom speed (#2)
 *
 * 1.2.1, Mon Jul  4 00:33:18 CEST 2011, Andrea Leofreddi
 *	- Fixed a regression with mouse wheel (now working on Firefox 5)
 *	- Working with viewBox attribute (#4)
 *	- Added "use strict;" and fixed resulting warnings (#5)
 *	- Added configuration variables, dragging is disabled by default (#3)
 *
 * 1.2, Sat Mar 20 08:42:50 GMT 2010, Zeng Xiaohui
 *	Fixed a bug with browser mouse handler interaction
 *
 * 1.1, Wed Feb  3 17:39:33 GMT 2010, Zeng Xiaohui
 *	Updated the zoom code to support the mouse wheel on Safari/Chrome
 *
 * 1.0, Andrea Leofreddi
 *	First release
 *
 * This code is licensed under the following BSD license:
 *
 * Copyright 2009-2017 Andrea Leofreddi <a.leofreddi@vleo.net>. All rights reserved.
 *
 * Redistribution and use in source and binary forms, with or without modification, are
 * permitted provided that the following conditions are met:
 *
 *    1. Redistributions of source code must retain the above copyright
 *       notice, this list of conditions and the following disclaimer.
 *    2. Redistributions in binary form must reproduce the above copyright
 *       notice, this list of conditions and the following disclaimer in the
 *       documentation and/or other materials provided with the distribution.
 *    3. Neither the name of the copyright holder nor the names of its
 *       contributors may be used to endorse or promote products derived from
 *       this software without specific prior written permission.
 *
 * THIS SOFTWARE IS PROVIDED BY COPYRIGHT HOLDERS AND CONTRIBUTORS ''AS IS'' AND ANY EXPRESS
 * OR IMPLIED WARRANTIES, INCLUDING, BUT NOT LIMITED TO, THE IMPLIED WARRANTIES OF MERCHANTABILITY
 * AND FITNESS FOR A PARTICULAR PURPOSE ARE DISCLAIMED. IN NO EVENT SHALL COPYRIGHT HOLDERS OR
 * CONTRIBUTORS BE LIABLE FOR ANY DIRECT, INDIRECT, INCIDENTAL, SPECIAL, EXEMPLARY, OR
 * CONSEQUENTIAL DAMAGES (INCLUDING, BUT NOT LIMITED TO, PROCUREMENT OF SUBSTITUTE GOODS OR
 * SERVICES; LOSS OF USE, DATA, OR PROFITS; OR BUSINESS INTERRUPTION) HOWEVER CAUSED AND ON
 * ANY THEORY OF LIABILITY, WHETHER IN CONTRACT, STRICT LIABILITY, OR TORT (INCLUDING
 * NEGLIGENCE OR OTHERWISE) ARISING IN ANY WAY OUT OF THE USE OF THIS SOFTWARE, EVEN IF
 * ADVISED OF THE POSSIBILITY OF SUCH DAMAGE.
 *
 * The views and conclusions contained in the software and documentation are those of the
 * authors and should not be interpreted as representing official policies, either expressed
 * or implied, of Andrea Leofreddi.
 */

"use strict";

/// CONFIGURATION
/// ====>

var enablePan = 1; // 1 or 0: enable or disable panning (default enabled)
var enableZoom = 1; // 1 or 0: enable or disable zooming (default enabled)
var enableDrag = 0; // 1 or 0: enable or disable dragging (default disabled)
var zoomScale = 0.2; // Zoom sensitivity

/// <====
/// END OF CONFIGURATION

var root = document.documentElement;

var state = 'none', svgRoot = null, stateTarget, stateOrigin, stateTf;

setupHandlers(root);

/**
 * Register handlers
 */
function setupHandlers(root){
	setAttributes(root, {
		"onmouseup" : "handleMouseUp(evt)",
		"onmousedown" : "handleMouseDown(evt)",
		"onmousemove" : "handleMouseMove(evt)",
		//"onmouseout" : "handleMouseUp(evt)", // Decomment this to stop the pan functionality when dragging out of the SVG element
	});

	if(navigator.userAgent.toLowerCase().indexOf('webkit') >= 0)
		window.addEventListener('mousewheel', handleMouseWheel, false); // Chrome/Safari
	else
		window.addEventListener('DOMMouseScroll', handleMouseWheel, false); // Others
}

/**
 * Retrieves the root element for SVG manipulation. The element is then cached into the svgRoot global variable.
 */
function getRoot(root) {
	if(svgRoot == null) {
		var r = root.getElementById("viewport") ? root.getElementById("viewport") : root.documentElement, t = r;

		while(t != root) {
			if(t.getAttribute("viewBox")) {
				setCTM(r, t.getCTM());

				t.removeAttribute("viewBox");
			}

			t = t.parentNode;
		}

		svgRoot = r;
	}

	return svgRoot;
}

/**
 * Instance an SVGPoint object with given event coordinates.
 */
function getEventPoint(evt) {
	var p = root.createSVGPoint();

	p.x = evt.clientX;
	p.y = evt.clientY;

	return p;
}

/**
 * Sets the current transform matrix of an element.
 */
function setCTM(element, matrix) {
	var s = "matrix(" + matrix.a + "," + matrix.b + "," + matrix.c + "," + matrix.d + "," + matrix.e + "," + matrix.f + ")";

	element.setAttribute("transform", s);
}

/**
 * Dumps a matrix to a string (useful for debug).
 */
function dumpMatrix(matrix) {
	var s = "[ " + matrix.a + ", " + matrix.c + ", " + matrix.e + "\n  " + matrix.b + ", " + matrix.d + ", " + matrix.f + "\n  0, 0, 1 ]";

	return s;
}

/**
 * Sets attributes of an element.
 */
function setAttributes(element, attributes){
	for (var i in attributes)
		element.setAttributeNS(null, i, attributes[i]);
}

/**
 * Handle mouse wheel event.
 */
function handleMouseWheel(evt) {
	if(!enableZoom)
		return;

	if(evt.preventDefault)
		evt.preventDefault();

	evt.returnValue = false;

	var svgDoc = evt.target.ownerDocument;

	var delta;

	if(evt.wheelDelta)
		delta = evt.wheelDelta / 360; // Chrome/Safari
	else
		delta = evt.detail / -9; // Mozilla

	var z = Math.pow(1 + zoomScale, delta);

	var g = getRoot(svgDoc);
	
	var p = getEventPoint(evt);

	p = p.matrixTransform(g.getCTM().inverse());

	// Compute new scale matrix in current mouse position
	var k = root.createSVGMatrix().translate(p.x, p.y).scale(z).translate(-p.x, -p.y);

        setCTM(g, g.getCTM().multiply(k));

	if(typeof(stateTf) == "undefined")
		stateTf = g.getCTM().inverse();

	stateTf = stateTf.multiply(k.inverse());
}

/**
 * Handle mouse move event.
 */
function handleMouseMove(evt) {
	if(evt.preventDefault)
		evt.preventDefault();

	evt.returnValue = false;

	var svgDoc = evt.target.ownerDocument;

	var g = getRoot(svgDoc);

	if(state == 'pan' && enablePan) {
		// Pan mode
		var p = getEventPoint(evt).matrixTransform(stateTf);

		setCTM(g, stateTf.inverse().translate(p.x - stateOrigin.x, p.y - stateOrigin.y));
	} else if(state == 'drag' && enableDrag) {
		// Drag mode
		var p = getEventPoint(evt).matrixTransform(g.getCTM().inverse());

		setCTM(stateTarget, root.createSVGMatrix().translate(p.x - stateOrigin.x, p.y - stateOrigin.y).multiply(g.getCTM().inverse()).multiply(stateTarget.getCTM()));

		stateOrigin = p;
	}
}

/**
 * Handle click event.
 */
function handleMouseDown(evt) {
	if(evt.preventDefault)
		evt.preventDefault();

	evt.returnValue = false;

	var svgDoc = evt.target.ownerDocument;

	var g = getRoot(svgDoc);

	if(
		evt.target.tagName == "svg"
		|| !enableDrag // Pan anyway when drag is disabled and the user clicked on an element
	) {
		// Pan mode
		state = 'pan';

		stateTf = g.getCTM().inverse();

		stateOrigin = getEventPoint(evt).matrixTransform(stateTf);
	} else {
		// Drag mode
		state = 'drag';

		stateTarget = evt.target;

		stateTf = g.getCTM().inverse();

		stateOrigin = getEventPoint(evt).matrixTransform(stateTf);
	}
}

/**
 * Handle mouse button release event.
 */
function handleMouseUp(evt) {
	if(evt.preventDefault)
		evt.preventDefault();

	evt.returnValue = false;

	var svgDoc = evt.target.ownerDocument;

	if(state == 'pan' || state == 'drag') {
		// Quit pan mode
		state = '';
	}
}
]]></script><g id="viewport" transform="scale(0.5,0.5) translate(0,0)"><g id="graph0" class="graph" transform="scale(1 1) rotate(0) translate(4 1188)">
<title>unnamed</title>
<polygon fill="white" stroke="transparent" points="-4,4 -4,-1188 1280,-1188 1280,4 -4,4"/>
<g id="clust1" class="cluster">
<title>cluster_L</title>
<polygon fill="none" stroke="black" points="8,-1061 8,-1176 484,-1176 484,-1061 8,-1061"/>
</g>
<!-- Type: alloc_space -->
<g id="node1" class="node">
<title>Type: alloc_space</title>
<polygon fill="#f8f8f8" stroke="black" points="475.5,-1168 16.5,-1168 16.5,-1069 475.5,-1069 475.5,-1168"/>
<text text-anchor="start" x="24.5" y="-1151.2" font-family="Times,serif" font-size="16.00">Type: alloc_space</text>
<text text-anchor="start" x="24.5" y="-1133.2" font-family="Times,serif" font-size="16.00">Time: Mar 30, 2022 at 4:04pm (AEDT)</text>
<text text-anchor="start" x="24.5" y="-1115.2" font-family="Times,serif" font-size="16.00">Showing nodes accounting for 4050.47kB, 100% of 4050.47kB total</text>
<text text-anchor="start" x="24.5" y="-1078.2" font-family="Times,serif" font-size="16.00">See https://git.io/JfYMW for how to read the graph</text>
</g>
<!-- N1 -->
<g id="node1" class="node">
<title>N1</title>
<g id="a_node1"><a xlink:title="runtime/pprof.profileWriter (2513.69kB)">
<polygon fill="#edd8d5" stroke="#b21700" points="592,-1136.5 494,-1136.5 494,-1100.5 592,-1100.5 592,-1136.5"/>
<text text-anchor="middle" x="543" y="-1125.6" font-family="Times,serif" font-size="8.00">pprof</text>
<text text-anchor="middle" x="543" y="-1116.6" font-family="Times,serif" font-size="8.00">profileWriter</text>
<text text-anchor="middle" x="543" y="-1107.6" font-family="Times,serif" font-size="8.00">0 of 2513.69kB (62.06%)</text>
</a>
</g>
</g>
<!-- N23 -->
<g id="node23" class="node">
<title>N23</title>
<g id="a_node23"><a xlink:title="runtime/pprof.(*profileBuilder).addCPUData (516.01kB)">
<polygon fill="#ede5de" stroke="#b27540" points="463,-1001.5 369,-1001.5 369,-957.5 463,-957.5 463,-1001.5"/>
<text text-anchor="middle" x="416" y="-991.1" font-family="Times,serif" font-size="8.00">pprof</text>
<text text-anchor="middle" x="416" y="-982.1" font-family="Times,serif" font-size="8.00">(*profileBuilder)</text>
<text text-anchor="middle" x="416" y="-973.1" font-family="Times,serif" font-size="8.00">addCPUData</text>
<text text-anchor="middle" x="416" y="-964.1" font-family="Times,serif" font-size="8.00">0 of 516.01kB (12.74%)</text>
</a>
</g>
</g>
<!-- N1&#45;&gt;N23 -->
<g id="edge14" class="edge">
<title>N1&#45;&gt;N23</title>
<g id="a_edge14"><a xlink:title="runtime/pprof.profileWriter &#45;&gt; runtime/pprof.(*profileBuilder).addCPUData (516.01kB)">
<path fill="none" stroke="#b27540" d="M526.92,-1100.3C514.38,-1086.89 496.56,-1067.78 481,-1051 468.25,-1037.25 454.14,-1021.95 442.33,-1009.13"/>
<polygon fill="#b27540" stroke="#b27540" points="444.66,-1006.49 435.31,-1001.51 439.51,-1011.23 444.66,-1006.49"/>
</a>
</g>
<g id="a_edge14&#45;label"><a xlink:title="runtime/pprof.profileWriter &#45;&gt; runtime/pprof.(*profileBuilder).addCPUData (516.01kB)">
<text text-anchor="middle" x="510" y="-1039.8" font-family="Times,serif" font-size="14.00"> 516.01kB</text>
</a>
</g>
</g>
<!-- N24 -->
<g id="node24" class="node">
<title>N24</title>
<g id="a_node24"><a xlink:title="runtime/pprof.(*profileBuilder).build (1485.59kB)">
<polygon fill="#eddbd5" stroke="#b22e00" points="592,-1001.5 494,-1001.5 494,-957.5 592,-957.5 592,-1001.5"/>
<text text-anchor="middle" x="543" y="-991.1" font-family="Times,serif" font-size="8.00">pprof</text>
<text text-anchor="middle" x="543" y="-982.1" font-family="Times,serif" font-size="8.00">(*profileBuilder)</text>
<text text-anchor="middle" x="543" y="-973.1" font-family="Times,serif" font-size="8.00">build</text>
<text text-anchor="middle" x="543" y="-964.1" font-family="Times,serif" font-size="8.00">0 of 1485.59kB (36.68%)</text>
</a>
</g>
</g>
<!-- N1&#45;&gt;N24 -->
<g id="edge10" class="edge">
<title>N1&#45;&gt;N24</title>
<g id="a_edge10"><a xlink:title="runtime/pprof.profileWriter &#45;&gt; runtime/pprof.(*profileBuilder).build (1485.59kB)">
<path fill="none" stroke="#b22e00" stroke-width="2" d="M543,-1100.43C543,-1078.39 543,-1039.62 543,-1012.13"/>
<polygon fill="#b22e00" stroke="#b22e00" stroke-width="2" points="546.5,-1011.85 543,-1001.85 539.5,-1011.85 546.5,-1011.85"/>
</a>
</g>
<g id="a_edge10&#45;label"><a xlink:title="runtime/pprof.profileWriter &#45;&gt; runtime/pprof.(*profileBuilder).build (1485.59kB)">
<text text-anchor="middle" x="575" y="-1039.8" font-family="Times,serif" font-size="14.00"> 1485.59kB</text>
</a>
</g>
</g>
<!-- N25 -->
<g id="node25" class="node">
<title>N25</title>
<g id="a_node25"><a xlink:title="runtime/pprof.newProfileBuilder (512.09kB)">
<polygon fill="#ede5de" stroke="#b27541" points="728,-997.5 634,-997.5 634,-961.5 728,-961.5 728,-997.5"/>
<text text-anchor="middle" x="681" y="-986.6" font-family="Times,serif" font-size="8.00">pprof</text>
<text text-anchor="middle" x="681" y="-977.6" font-family="Times,serif" font-size="8.00">newProfileBuilder</text>
<text text-anchor="middle" x="681" y="-968.6" font-family="Times,serif" font-size="8.00">0 of 512.09kB (12.64%)</text>
</a>
</g>
</g>
<!-- N1&#45;&gt;N25 -->
<g id="edge27" class="edge">
<title>N1&#45;&gt;N25</title>
<g id="a_edge27"><a xlink:title="runtime/pprof.profileWriter &#45;&gt; runtime/pprof.newProfileBuilder (512.09kB)">
<path fill="none" stroke="#b27541" d="M560.68,-1100.35C574.45,-1086.96 594.01,-1067.87 611,-1051 626.39,-1035.73 643.55,-1018.45 657.02,-1004.82"/>
<polygon fill="#b27541" stroke="#b27541" points="659.56,-1007.24 664.1,-997.67 654.58,-1002.32 659.56,-1007.24"/>
</a>
</g>
<g id="a_edge27&#45;label"><a xlink:title="runtime/pprof.profileWriter &#45;&gt; runtime/pprof.newProfileBuilder (512.09kB)">
<text text-anchor="middle" x="654" y="-1039.8" font-family="Times,serif" font-size="14.00"> 512.09kB</text>
</a>
</g>
</g>
<!-- N2 -->
<g id="node2" class="node">
<title>N2</title>
<g id="a_node2"><a xlink:title="compress/flate.NewWriter (1485.59kB)">
<polygon fill="#eddbd5" stroke="#b22e00" points="665.5,-739 420.5,-739 420.5,-627 665.5,-627 665.5,-739"/>
<text text-anchor="middle" x="543" y="-715.8" font-family="Times,serif" font-size="24.00">flate</text>
<text text-anchor="middle" x="543" y="-689.8" font-family="Times,serif" font-size="24.00">NewWriter</text>
<text text-anchor="middle" x="543" y="-663.8" font-family="Times,serif" font-size="24.00">902.59kB (22.28%)</text>
<text text-anchor="middle" x="543" y="-637.8" font-family="Times,serif" font-size="24.00">of 1485.59kB (36.68%)</text>
</a>
</g>
</g>
<!-- NN2_0 -->
<g id="NN2_0" class="node">
<title>NN2_0</title>
<g id="a_NN2_0"><a xlink:title="902.59kB">
<polygon fill="#f8f8f8" stroke="black" points="570,-576 520,-576 516,-572 516,-540 566,-540 570,-544 570,-576"/>
<polyline fill="none" stroke="black" points="566,-572 516,-572 "/>
<polyline fill="none" stroke="black" points="566,-572 566,-540 "/>
<polyline fill="none" stroke="black" points="566,-572 570,-576 "/>
<text text-anchor="middle" x="543" y="-556.1" font-family="Times,serif" font-size="8.00">648kB</text>
</a>
</g>
</g>
<!-- N2&#45;&gt;NN2_0 -->
<g id="edge1" class="edge">
<title>N2&#45;&gt;NN2_0</title>
<g id="a_edge1"><a xlink:title="902.59kB">
<path fill="none" stroke="black" d="M543,-626.98C543,-612.87 543,-598.31 543,-586.3"/>
<polygon fill="black" stroke="black" points="546.5,-586.07 543,-576.07 539.5,-586.07 546.5,-586.07"/>
</a>
</g>
<g id="a_edge1&#45;label"><a xlink:title="902.59kB">
<text text-anchor="middle" x="572" y="-597.8" font-family="Times,serif" font-size="14.00"> 902.59kB</text>
</a>
</g>
</g>
<!-- N12 -->
<g id="node12" class="node">
<title>N12</title>
<g id="a_node12"><a xlink:title="compress/flate.(*compressor).init (583.01kB)">
<polygon fill="#ede3dc" stroke="#b26a32" points="663,-489 569,-489 569,-445 663,-445 663,-489"/>
<text text-anchor="middle" x="616" y="-478.6" font-family="Times,serif" font-size="8.00">flate</text>
<text text-anchor="middle" x="616" y="-469.6" font-family="Times,serif" font-size="8.00">(*compressor)</text>
<text text-anchor="middle" x="616" y="-460.6" font-family="Times,serif" font-size="8.00">init</text>
<text text-anchor="middle" x="616" y="-451.6" font-family="Times,serif" font-size="8.00">0 of 583.01kB (14.39%)</text>
</a>
</g>
</g>
<!-- N2&#45;&gt;N12 -->
<g id="edge12" class="edge">
<title>N2&#45;&gt;N12</title>
<g id="a_edge12"><a xlink:title="compress/flate.NewWriter &#45;&gt; compress/flate.(*compressor).init (583.01kB)">
<path fill="none" stroke="#b26a32" d="M592.84,-626.67C596.38,-620.96 599.53,-615.03 602,-609 616.55,-573.53 618.58,-528.98 617.93,-499.56"/>
<polygon fill="#b26a32" stroke="#b26a32" points="621.42,-499.33 617.59,-489.45 614.43,-499.57 621.42,-499.33"/>
</a>
</g>
<g id="a_edge12&#45;label"><a xlink:title="compress/flate.NewWriter &#45;&gt; compress/flate.(*compressor).init (583.01kB)">
<text text-anchor="middle" x="646" y="-554.3" font-family="Times,serif" font-size="14.00"> 583.01kB</text>
</a>
</g>
</g>
<!-- N3 -->
<g id="node3" class="node">
<title>N3</title>
<g id="a_node3"><a xlink:title="compress/flate.newDeflateFast (583.01kB)">
<polygon fill="#ede3dc" stroke="#b26a32" points="707,-379 525,-379 525,-302 707,-302 707,-379"/>
<text text-anchor="middle" x="616" y="-358.2" font-family="Times,serif" font-size="21.00">flate</text>
<text text-anchor="middle" x="616" y="-335.2" font-family="Times,serif" font-size="21.00">newDeflateFast</text>
<text text-anchor="middle" x="616" y="-312.2" font-family="Times,serif" font-size="21.00">583.01kB (14.39%)</text>
</a>
</g>
</g>
<!-- NN3_0 -->
<g id="NN3_0" class="node">
<title>NN3_0</title>
<g id="a_NN3_0"><a xlink:title="583.01kB">
<polygon fill="#f8f8f8" stroke="black" points="643,-251 593,-251 589,-247 589,-215 639,-215 643,-219 643,-251"/>
<polyline fill="none" stroke="black" points="639,-247 589,-247 "/>
<polyline fill="none" stroke="black" points="639,-247 639,-215 "/>
<polyline fill="none" stroke="black" points="639,-247 643,-251 "/>
<text text-anchor="middle" x="616" y="-231.1" font-family="Times,serif" font-size="8.00">136kB</text>
</a>
</g>
</g>
<!-- N3&#45;&gt;NN3_0 -->
<g id="edge2" class="edge">
<title>N3&#45;&gt;NN3_0</title>
<g id="a_edge2"><a xlink:title="583.01kB">
<path fill="none" stroke="black" d="M616,-301.71C616,-288.36 616,-273.61 616,-261.3"/>
<polygon fill="black" stroke="black" points="619.5,-261.2 616,-251.2 612.5,-261.2 619.5,-261.2"/>
</a>
</g>
<g id="a_edge2&#45;label"><a xlink:title="583.01kB">
<text text-anchor="middle" x="645" y="-272.8" font-family="Times,serif" font-size="14.00"> 583.01kB</text>
</a>
</g>
</g>
<!-- N4 -->
<g id="node4" class="node">
<title>N4</title>
<g id="a_node4"><a xlink:title="runtime/pprof.(*profMap).lookup (516.01kB)">
<polygon fill="#ede5de" stroke="#b27540" points="466,-890 284,-890 284,-790 466,-790 466,-890"/>
<text text-anchor="middle" x="375" y="-869.2" font-family="Times,serif" font-size="21.00">pprof</text>
<text text-anchor="middle" x="375" y="-846.2" font-family="Times,serif" font-size="21.00">(*profMap)</text>
<text text-anchor="middle" x="375" y="-823.2" font-family="Times,serif" font-size="21.00">lookup</text>
<text text-anchor="middle" x="375" y="-800.2" font-family="Times,serif" font-size="21.00">516.01kB (12.74%)</text>
</a>
</g>
</g>
<!-- NN4_0 -->
<g id="NN4_0" class="node">
<title>NN4_0</title>
<g id="a_NN4_0"><a xlink:title="516.01kB">
<polygon fill="#f8f8f8" stroke="black" points="402,-701 352,-701 348,-697 348,-665 398,-665 402,-669 402,-701"/>
<polyline fill="none" stroke="black" points="398,-697 348,-697 "/>
<polyline fill="none" stroke="black" points="398,-697 398,-665 "/>
<polyline fill="none" stroke="black" points="398,-697 402,-701 "/>
<text text-anchor="middle" x="375" y="-681.1" font-family="Times,serif" font-size="8.00">8kB</text>
</a>
</g>
</g>
<!-- N4&#45;&gt;NN4_0 -->
<g id="edge3" class="edge">
<title>N4&#45;&gt;NN4_0</title>
<g id="a_edge3"><a xlink:title="516.01kB">
<path fill="none" stroke="black" d="M375,-789.96C375,-764.01 375,-733.12 375,-711.41"/>
<polygon fill="black" stroke="black" points="378.5,-711.25 375,-701.25 371.5,-711.25 378.5,-711.25"/>
</a>
</g>
<g id="a_edge3&#45;label"><a xlink:title="516.01kB">
<text text-anchor="middle" x="404" y="-760.8" font-family="Times,serif" font-size="14.00"> 516.01kB</text>
</a>
</g>
</g>
<!-- N5 -->
<g id="node5" class="node">
<title>N5</title>
<g id="a_node5"><a xlink:title="runtime.allocm (512.56kB)">
<polygon fill="#ede5de" stroke="#b27541" points="958,-164 776,-164 776,-87 958,-87 958,-164"/>
<text text-anchor="middle" x="867" y="-143.2" font-family="Times,serif" font-size="21.00">runtime</text>
<text text-anchor="middle" x="867" y="-120.2" font-family="Times,serif" font-size="21.00">allocm</text>
<text text-anchor="middle" x="867" y="-97.2" font-family="Times,serif" font-size="21.00">512.56kB (12.65%)</text>
</a>
</g>
</g>
<!-- NN5_0 -->
<g id="NN5_0" class="node">
<title>NN5_0</title>
<g id="a_NN5_0"><a xlink:title="512.56kB">
<polygon fill="#f8f8f8" stroke="black" points="894,-36 844,-36 840,-32 840,0 890,0 894,-4 894,-36"/>
<polyline fill="none" stroke="black" points="890,-32 840,-32 "/>
<polyline fill="none" stroke="black" points="890,-32 890,0 "/>
<polyline fill="none" stroke="black" points="890,-32 894,-36 "/>
<text text-anchor="middle" x="867" y="-16.1" font-family="Times,serif" font-size="8.00">1.12kB</text>
</a>
</g>
</g>
<!-- N5&#45;&gt;NN5_0 -->
<g id="edge4" class="edge">
<title>N5&#45;&gt;NN5_0</title>
<g id="a_edge4"><a xlink:title="512.56kB">
<path fill="none" stroke="black" d="M867,-86.71C867,-73.36 867,-58.61 867,-46.3"/>
<polygon fill="black" stroke="black" points="870.5,-46.2 867,-36.2 863.5,-46.2 870.5,-46.2"/>
</a>
</g>
<g id="a_edge4&#45;label"><a xlink:title="512.56kB">
<text text-anchor="middle" x="896" y="-57.8" font-family="Times,serif" font-size="14.00"> 512.56kB</text>
</a>
</g>
</g>
<!-- N6 -->
<g id="node6" class="node">
<title>N6</title>
<g id="a_node6"><a xlink:title="runtime.malg (512.20kB)">
<polygon fill="#ede5de" stroke="#b27541" points="1114,-721.5 932,-721.5 932,-644.5 1114,-644.5 1114,-721.5"/>
<text text-anchor="middle" x="1023" y="-700.7" font-family="Times,serif" font-size="21.00">runtime</text>
<text text-anchor="middle" x="1023" y="-677.7" font-family="Times,serif" font-size="21.00">malg</text>
<text text-anchor="middle" x="1023" y="-654.7" font-family="Times,serif" font-size="21.00">512.20kB (12.65%)</text>
</a>
</g>
</g>
<!-- NN6_0 -->
<g id="NN6_0" class="node">
<title>NN6_0</title>
<g id="a_NN6_0"><a xlink:title="512.20kB">
<polygon fill="#f8f8f8" stroke="black" points="1050,-576 1000,-576 996,-572 996,-540 1046,-540 1050,-544 1050,-576"/>
<polyline fill="none" stroke="black" points="1046,-572 996,-572 "/>
<polyline fill="none" stroke="black" points="1046,-572 1046,-540 "/>
<polyline fill="none" stroke="black" points="1046,-572 1050,-576 "/>
<text text-anchor="middle" x="1023" y="-556.1" font-family="Times,serif" font-size="8.00">416B</text>
</a>
</g>
</g>
<!-- N6&#45;&gt;NN6_0 -->
<g id="edge5" class="edge">
<title>N6&#45;&gt;NN6_0</title>
<g id="a_edge5"><a xlink:title="512.20kB">
<path fill="none" stroke="black" d="M1023,-644.43C1023,-625.77 1023,-603.62 1023,-586.56"/>
<polygon fill="black" stroke="black" points="1026.5,-586.16 1023,-576.16 1019.5,-586.16 1026.5,-586.16"/>
</a>
</g>
<g id="a_edge5&#45;label"><a xlink:title="512.20kB">
<text text-anchor="middle" x="1052" y="-597.8" font-family="Times,serif" font-size="14.00"> 512.20kB</text>
</a>
</g>
</g>
<!-- N7 -->
<g id="node7" class="node">
<title>N7</title>
<g id="a_node7"><a xlink:title="compress/gzip.NewWriterLevel (512.09kB)">
<polygon fill="#ede5de" stroke="#b27541" points="802,-878.5 620,-878.5 620,-801.5 802,-801.5 802,-878.5"/>
<text text-anchor="middle" x="711" y="-857.7" font-family="Times,serif" font-size="21.00">gzip</text>
<text text-anchor="middle" x="711" y="-834.7" font-family="Times,serif" font-size="21.00">NewWriterLevel</text>
<text text-anchor="middle" x="711" y="-811.7" font-family="Times,serif" font-size="21.00">512.09kB (12.64%)</text>
</a>
</g>
</g>
<!-- NN7_0 -->
<g id="NN7_0" class="node">
<title>NN7_0</title>
<g id="a_NN7_0"><a xlink:title="512.09kB">
<polygon fill="#f8f8f8" stroke="black" points="738,-701 688,-701 684,-697 684,-665 734,-665 738,-669 738,-701"/>
<polyline fill="none" stroke="black" points="734,-697 684,-697 "/>
<polyline fill="none" stroke="black" points="734,-697 734,-665 "/>
<polyline fill="none" stroke="black" points="734,-697 738,-701 "/>
<text text-anchor="middle" x="711" y="-681.1" font-family="Times,serif" font-size="8.00">176B</text>
</a>
</g>
</g>
<!-- N7&#45;&gt;NN7_0 -->
<g id="edge6" class="edge">
<title>N7&#45;&gt;NN7_0</title>
<g id="a_edge6"><a xlink:title="512.09kB">
<path fill="none" stroke="black" d="M711,-801.48C711,-773.69 711,-736.47 711,-711.43"/>
<polygon fill="black" stroke="black" points="714.5,-711.19 711,-701.19 707.5,-711.19 714.5,-711.19"/>
</a>
</g>
<g id="a_edge6&#45;label"><a xlink:title="512.09kB">
<text text-anchor="middle" x="740" y="-760.8" font-family="Times,serif" font-size="14.00"> 512.09kB</text>
</a>
</g>
</g>
<!-- N8 -->
<g id="node8" class="node">
<title>N8</title>
<g id="a_node8"><a xlink:title="github.com/joshcarp/go&#45;benchmarks/map&#45;concurrent.TestConcurrentRead (512.01kB)">
<polygon fill="#ede5de" stroke="#b27541" points="1276,-1018 1088,-1018 1088,-941 1276,-941 1276,-1018"/>
<text text-anchor="middle" x="1182" y="-997.2" font-family="Times,serif" font-size="21.00">map&#45;concurrent</text>
<text text-anchor="middle" x="1182" y="-974.2" font-family="Times,serif" font-size="21.00">TestConcurrentRead</text>
<text text-anchor="middle" x="1182" y="-951.2" font-family="Times,serif" font-size="21.00">512.01kB (12.64%)</text>
</a>
</g>
</g>
<!-- NN8_0 -->
<g id="NN8_0" class="node">
<title>NN8_0</title>
<g id="a_NN8_0"><a xlink:title="512.01kB">
<polygon fill="#f8f8f8" stroke="black" points="1209,-858 1159,-858 1155,-854 1155,-822 1205,-822 1209,-826 1209,-858"/>
<polyline fill="none" stroke="black" points="1205,-854 1155,-854 "/>
<polyline fill="none" stroke="black" points="1205,-854 1205,-822 "/>
<polyline fill="none" stroke="black" points="1205,-854 1209,-858 "/>
<text text-anchor="middle" x="1182" y="-838.1" font-family="Times,serif" font-size="8.00">24B</text>
</a>
</g>
</g>
<!-- N8&#45;&gt;NN8_0 -->
<g id="edge7" class="edge">
<title>N8&#45;&gt;NN8_0</title>
<g id="a_edge7"><a xlink:title="512.01kB">
<path fill="none" stroke="black" d="M1182,-940.93C1182,-917.91 1182,-888.97 1182,-868.16"/>
<polygon fill="black" stroke="black" points="1185.5,-868.1 1182,-858.1 1178.5,-868.1 1185.5,-868.1"/>
</a>
</g>
<g id="a_edge7&#45;label"><a xlink:title="512.01kB">
<text text-anchor="middle" x="1211" y="-911.8" font-family="Times,serif" font-size="14.00"> 512.01kB</text>
</a>
</g>
</g>
<!-- N9 -->
<g id="node9" class="node">
<title>N9</title>
<g id="a_node9"><a xlink:title="runtime.mstart (512.56kB)">
<polygon fill="#ede5de" stroke="#b27541" points="914,-1136.5 820,-1136.5 820,-1100.5 914,-1100.5 914,-1136.5"/>
<text text-anchor="middle" x="867" y="-1125.6" font-family="Times,serif" font-size="8.00">runtime</text>
<text text-anchor="middle" x="867" y="-1116.6" font-family="Times,serif" font-size="8.00">mstart</text>
<text text-anchor="middle" x="867" y="-1107.6" font-family="Times,serif" font-size="8.00">0 of 512.56kB (12.65%)</text>
</a>
</g>
</g>
<!-- N14 -->
<g id="node14" class="node">
<title>N14</title>
<g id="a_node14"><a xlink:title="runtime.mstart0 (512.56kB)">
<polygon fill="#ede5de" stroke="#b27541" points="914,-997.5 820,-997.5 820,-961.5 914,-961.5 914,-997.5"/>
<text text-anchor="middle" x="867" y="-986.6" font-family="Times,serif" font-size="8.00">runtime</text>
<text text-anchor="middle" x="867" y="-977.6" font-family="Times,serif" font-size="8.00">mstart0</text>
<text text-anchor="middle" x="867" y="-968.6" font-family="Times,serif" font-size="8.00">0 of 512.56kB (12.65%)</text>
</a>
</g>
</g>
<!-- N9&#45;&gt;N14 -->
<g id="edge15" class="edge">
<title>N9&#45;&gt;N14</title>
<g id="a_edge15"><a xlink:title="runtime.mstart &#45;&gt; runtime.mstart0 (512.56kB)">
<path fill="none" stroke="#b27541" d="M867,-1100.43C867,-1077.25 867,-1035.56 867,-1007.96"/>
<polygon fill="#b27541" stroke="#b27541" points="870.5,-1007.79 867,-997.79 863.5,-1007.79 870.5,-1007.79"/>
</a>
</g>
<g id="a_edge15&#45;label"><a xlink:title="runtime.mstart &#45;&gt; runtime.mstart0 (512.56kB)">
<text text-anchor="middle" x="896" y="-1039.8" font-family="Times,serif" font-size="14.00"> 512.56kB</text>
</a>
</g>
</g>
<!-- N10 -->
<g id="node10" class="node">
<title>N10</title>
<g id="a_node10"><a xlink:title="runtime.systemstack (512.20kB)">
<polygon fill="#ede5de" stroke="#b27541" points="1070,-1136.5 976,-1136.5 976,-1100.5 1070,-1100.5 1070,-1136.5"/>
<text text-anchor="middle" x="1023" y="-1125.6" font-family="Times,serif" font-size="8.00">runtime</text>
<text text-anchor="middle" x="1023" y="-1116.6" font-family="Times,serif" font-size="8.00">systemstack</text>
<text text-anchor="middle" x="1023" y="-1107.6" font-family="Times,serif" font-size="8.00">0 of 512.20kB (12.65%)</text>
</a>
</g>
</g>
<!-- N17 -->
<g id="node17" class="node">
<title>N17</title>
<g id="a_node17"><a xlink:title="runtime.newproc.func1 (512.20kB)">
<polygon fill="#ede5de" stroke="#b27541" points="1070,-1001.5 976,-1001.5 976,-957.5 1070,-957.5 1070,-1001.5"/>
<text text-anchor="middle" x="1023" y="-991.1" font-family="Times,serif" font-size="8.00">runtime</text>
<text text-anchor="middle" x="1023" y="-982.1" font-family="Times,serif" font-size="8.00">newproc</text>
<text text-anchor="middle" x="1023" y="-973.1" font-family="Times,serif" font-size="8.00">func1</text>
<text text-anchor="middle" x="1023" y="-964.1" font-family="Times,serif" font-size="8.00">0 of 512.20kB (12.65%)</text>
</a>
</g>
</g>
<!-- N10&#45;&gt;N17 -->
<g id="edge25" class="edge">
<title>N10&#45;&gt;N17</title>
<g id="a_edge25"><a xlink:title="runtime.systemstack &#45;&gt; runtime.newproc.func1 (512.20kB)">
<path fill="none" stroke="#b27541" d="M1023,-1100.43C1023,-1078.39 1023,-1039.62 1023,-1012.13"/>
<polygon fill="#b27541" stroke="#b27541" points="1026.5,-1011.85 1023,-1001.85 1019.5,-1011.85 1026.5,-1011.85"/>
</a>
</g>
<g id="a_edge25&#45;label"><a xlink:title="runtime.systemstack &#45;&gt; runtime.newproc.func1 (512.20kB)">
<text text-anchor="middle" x="1052" y="-1039.8" font-family="Times,serif" font-size="14.00"> 512.20kB</text>
</a>
</g>
</g>
<!-- N11 -->
<g id="node11" class="node">
<title>N11</title>
<g id="a_node11"><a xlink:title="testing.tRunner (512.01kB)">
<polygon fill="#ede5de" stroke="#b27541" points="1229,-1136.5 1135,-1136.5 1135,-1100.5 1229,-1100.5 1229,-1136.5"/>
<text text-anchor="middle" x="1182" y="-1125.6" font-family="Times,serif" font-size="8.00">testing</text>
<text text-anchor="middle" x="1182" y="-1116.6" font-family="Times,serif" font-size="8.00">tRunner</text>
<text text-anchor="middle" x="1182" y="-1107.6" font-family="Times,serif" font-size="8.00">0 of 512.01kB (12.64%)</text>
</a>
</g>
</g>
<!-- N11&#45;&gt;N8 -->
<g id="edge28" class="edge">
<title>N11&#45;&gt;N8</title>
<g id="a_edge28"><a xlink:title="testing.tRunner &#45;&gt; github.com/joshcarp/go&#45;benchmarks/map&#45;concurrent.TestConcurrentRead (512.01kB)">
<path fill="none" stroke="#b27541" d="M1182,-1100.43C1182,-1082.46 1182,-1053.37 1182,-1028.34"/>
<polygon fill="#b27541" stroke="#b27541" points="1185.5,-1028.26 1182,-1018.26 1178.5,-1028.26 1185.5,-1028.26"/>
</a>
</g>
<g id="a_edge28&#45;label"><a xlink:title="testing.tRunner &#45;&gt; github.com/joshcarp/go&#45;benchmarks/map&#45;concurrent.TestConcurrentRead (512.01kB)">
<text text-anchor="middle" x="1211" y="-1039.8" font-family="Times,serif" font-size="14.00"> 512.01kB</text>
</a>
</g>
</g>
<!-- N12&#45;&gt;N3 -->
<g id="edge11" class="edge">
<title>N12&#45;&gt;N3</title>
<g id="a_edge11"><a xlink:title="compress/flate.(*compressor).init &#45;&gt; compress/flate.newDeflateFast (583.01kB)">
<path fill="none" stroke="#b26a32" d="M616,-444.88C616,-429.71 616,-408.64 616,-389.47"/>
<polygon fill="#b26a32" stroke="#b26a32" points="619.5,-389.37 616,-379.37 612.5,-389.37 619.5,-389.37"/>
</a>
</g>
<g id="a_edge11&#45;label"><a xlink:title="compress/flate.(*compressor).init &#45;&gt; compress/flate.newDeflateFast (583.01kB)">
<text text-anchor="middle" x="645" y="-415.8" font-family="Times,serif" font-size="14.00"> 583.01kB</text>
<text text-anchor="middle" x="645" y="-400.8" font-family="Times,serif" font-size="14.00"> (inline)</text>
</a>
</g>
</g>
<!-- N13 -->
<g id="node13" class="node">
<title>N13</title>
<g id="a_node13"><a xlink:title="compress/gzip.(*Writer).Write (1485.59kB)">
<polygon fill="#eddbd5" stroke="#b22e00" points="592,-862 494,-862 494,-818 592,-818 592,-862"/>
<text text-anchor="middle" x="543" y="-851.6" font-family="Times,serif" font-size="8.00">gzip</text>
<text text-anchor="middle" x="543" y="-842.6" font-family="Times,serif" font-size="8.00">(*Writer)</text>
<text text-anchor="middle" x="543" y="-833.6" font-family="Times,serif" font-size="8.00">Write</text>
<text text-anchor="middle" x="543" y="-824.6" font-family="Times,serif" font-size="8.00">0 of 1485.59kB (36.68%)</text>
</a>
</g>
</g>
<!-- N13&#45;&gt;N2 -->
<g id="edge8" class="edge">
<title>N13&#45;&gt;N2</title>
<g id="a_edge8"><a xlink:title="compress/gzip.(*Writer).Write &#45;&gt; compress/flate.NewWriter (1485.59kB)">
<path fill="none" stroke="#b22e00" stroke-width="2" d="M543,-817.77C543,-800.07 543,-773.85 543,-749.31"/>
<polygon fill="#b22e00" stroke="#b22e00" stroke-width="2" points="546.5,-749.29 543,-739.29 539.5,-749.29 546.5,-749.29"/>
</a>
</g>
<g id="a_edge8&#45;label"><a xlink:title="compress/gzip.(*Writer).Write &#45;&gt; compress/flate.NewWriter (1485.59kB)">
<text text-anchor="middle" x="575" y="-760.8" font-family="Times,serif" font-size="14.00"> 1485.59kB</text>
</a>
</g>
</g>
<!-- N15 -->
<g id="node15" class="node">
<title>N15</title>
<g id="a_node15"><a xlink:title="runtime.mstart1 (512.56kB)">
<polygon fill="#ede5de" stroke="#b27541" points="914,-858 820,-858 820,-822 914,-822 914,-858"/>
<text text-anchor="middle" x="867" y="-847.1" font-family="Times,serif" font-size="8.00">runtime</text>
<text text-anchor="middle" x="867" y="-838.1" font-family="Times,serif" font-size="8.00">mstart1</text>
<text text-anchor="middle" x="867" y="-829.1" font-family="Times,serif" font-size="8.00">0 of 512.56kB (12.65%)</text>
</a>
</g>
</g>
<!-- N14&#45;&gt;N15 -->
<g id="edge16" class="edge">
<title>N14&#45;&gt;N15</title>
<g id="a_edge16"><a xlink:title="runtime.mstart0 &#45;&gt; runtime.mstart1 (512.56kB)">
<path fill="none" stroke="#b27541" d="M867,-961.36C867,-938.1 867,-896.27 867,-868.56"/>
<polygon fill="#b27541" stroke="#b27541" points="870.5,-868.35 867,-858.35 863.5,-868.35 870.5,-868.35"/>
</a>
</g>
<g id="a_edge16&#45;label"><a xlink:title="runtime.mstart0 &#45;&gt; runtime.mstart1 (512.56kB)">
<text text-anchor="middle" x="896" y="-911.8" font-family="Times,serif" font-size="14.00"> 512.56kB</text>
</a>
</g>
</g>
<!-- N20 -->
<g id="node20" class="node">
<title>N20</title>
<g id="a_node20"><a xlink:title="runtime.schedule (512.56kB)">
<polygon fill="#ede5de" stroke="#b27541" points="914,-701 820,-701 820,-665 914,-665 914,-701"/>
<text text-anchor="middle" x="867" y="-690.1" font-family="Times,serif" font-size="8.00">runtime</text>
<text text-anchor="middle" x="867" y="-681.1" font-family="Times,serif" font-size="8.00">schedule</text>
<text text-anchor="middle" x="867" y="-672.1" font-family="Times,serif" font-size="8.00">0 of 512.56kB (12.65%)</text>
</a>
</g>
</g>
<!-- N15&#45;&gt;N20 -->
<g id="edge17" class="edge">
<title>N15&#45;&gt;N20</title>
<g id="a_edge17"><a xlink:title="runtime.mstart1 &#45;&gt; runtime.schedule (512.56kB)">
<path fill="none" stroke="#b27541" d="M867,-821.82C867,-795.17 867,-743.61 867,-711.66"/>
<polygon fill="#b27541" stroke="#b27541" points="870.5,-711.26 867,-701.26 863.5,-711.26 870.5,-711.26"/>
</a>
</g>
<g id="a_edge17&#45;label"><a xlink:title="runtime.mstart1 &#45;&gt; runtime.schedule (512.56kB)">
<text text-anchor="middle" x="896" y="-760.8" font-family="Times,serif" font-size="14.00"> 512.56kB</text>
</a>
</g>
</g>
<!-- N16 -->
<g id="node16" class="node">
<title>N16</title>
<g id="a_node16"><a xlink:title="runtime.newm (512.56kB)">
<polygon fill="#ede5de" stroke="#b27541" points="914,-251 820,-251 820,-215 914,-215 914,-251"/>
<text text-anchor="middle" x="867" y="-240.1" font-family="Times,serif" font-size="8.00">runtime</text>
<text text-anchor="middle" x="867" y="-231.1" font-family="Times,serif" font-size="8.00">newm</text>
<text text-anchor="middle" x="867" y="-222.1" font-family="Times,serif" font-size="8.00">0 of 512.56kB (12.65%)</text>
</a>
</g>
</g>
<!-- N16&#45;&gt;N5 -->
<g id="edge18" class="edge">
<title>N16&#45;&gt;N5</title>
<g id="a_edge18"><a xlink:title="runtime.newm &#45;&gt; runtime.allocm (512.56kB)">
<path fill="none" stroke="#b27541" d="M867,-214.58C867,-203.56 867,-188.73 867,-174.39"/>
<polygon fill="#b27541" stroke="#b27541" points="870.5,-174.09 867,-164.09 863.5,-174.09 870.5,-174.09"/>
</a>
</g>
<g id="a_edge18&#45;label"><a xlink:title="runtime.newm &#45;&gt; runtime.allocm (512.56kB)">
<text text-anchor="middle" x="896" y="-185.8" font-family="Times,serif" font-size="14.00"> 512.56kB</text>
</a>
</g>
</g>
<!-- N18 -->
<g id="node18" class="node">
<title>N18</title>
<g id="a_node18"><a xlink:title="runtime.newproc1 (512.20kB)">
<polygon fill="#ede5de" stroke="#b27541" points="1070,-858 976,-858 976,-822 1070,-822 1070,-858"/>
<text text-anchor="middle" x="1023" y="-847.1" font-family="Times,serif" font-size="8.00">runtime</text>
<text text-anchor="middle" x="1023" y="-838.1" font-family="Times,serif" font-size="8.00">newproc1</text>
<text text-anchor="middle" x="1023" y="-829.1" font-family="Times,serif" font-size="8.00">0 of 512.20kB (12.65%)</text>
</a>
</g>
</g>
<!-- N17&#45;&gt;N18 -->
<g id="edge23" class="edge">
<title>N17&#45;&gt;N18</title>
<g id="a_edge23"><a xlink:title="runtime.newproc.func1 &#45;&gt; runtime.newproc1 (512.20kB)">
<path fill="none" stroke="#b27541" d="M1023,-957.32C1023,-933.35 1023,-894.25 1023,-868.09"/>
<polygon fill="#b27541" stroke="#b27541" points="1026.5,-868.08 1023,-858.08 1019.5,-868.08 1026.5,-868.08"/>
</a>
</g>
<g id="a_edge23&#45;label"><a xlink:title="runtime.newproc.func1 &#45;&gt; runtime.newproc1 (512.20kB)">
<text text-anchor="middle" x="1052" y="-911.8" font-family="Times,serif" font-size="14.00"> 512.20kB</text>
</a>
</g>
</g>
<!-- N18&#45;&gt;N6 -->
<g id="edge24" class="edge">
<title>N18&#45;&gt;N6</title>
<g id="a_edge24"><a xlink:title="runtime.newproc1 &#45;&gt; runtime.malg (512.20kB)">
<path fill="none" stroke="#b27541" d="M1023,-821.82C1023,-800.22 1023,-762.26 1023,-731.65"/>
<polygon fill="#b27541" stroke="#b27541" points="1026.5,-731.58 1023,-721.58 1019.5,-731.58 1026.5,-731.58"/>
</a>
</g>
<g id="a_edge24&#45;label"><a xlink:title="runtime.newproc1 &#45;&gt; runtime.malg (512.20kB)">
<text text-anchor="middle" x="1052" y="-760.8" font-family="Times,serif" font-size="14.00"> 512.20kB</text>
</a>
</g>
</g>
<!-- N19 -->
<g id="node19" class="node">
<title>N19</title>
<g id="a_node19"><a xlink:title="runtime.resetspinning (512.56kB)">
<polygon fill="#ede5de" stroke="#b27541" points="914,-576 820,-576 820,-540 914,-540 914,-576"/>
<text text-anchor="middle" x="867" y="-565.1" font-family="Times,serif" font-size="8.00">runtime</text>
<text text-anchor="middle" x="867" y="-556.1" font-family="Times,serif" font-size="8.00">resetspinning</text>
<text text-anchor="middle" x="867" y="-547.1" font-family="Times,serif" font-size="8.00">0 of 512.56kB (12.65%)</text>
</a>
</g>
</g>
<!-- N22 -->
<g id="node22" class="node">
<title>N22</title>
<g id="a_node22"><a xlink:title="runtime.wakep (512.56kB)">
<polygon fill="#ede5de" stroke="#b27541" points="914,-485 820,-485 820,-449 914,-449 914,-485"/>
<text text-anchor="middle" x="867" y="-474.1" font-family="Times,serif" font-size="8.00">runtime</text>
<text text-anchor="middle" x="867" y="-465.1" font-family="Times,serif" font-size="8.00">wakep</text>
<text text-anchor="middle" x="867" y="-456.1" font-family="Times,serif" font-size="8.00">0 of 512.56kB (12.65%)</text>
</a>
</g>
</g>
<!-- N19&#45;&gt;N22 -->
<g id="edge19" class="edge">
<title>N19&#45;&gt;N22</title>
<g id="a_edge19"><a xlink:title="runtime.resetspinning &#45;&gt; runtime.wakep (512.56kB)">
<path fill="none" stroke="#b27541" d="M867,-539.84C867,-527.28 867,-509.98 867,-495.5"/>
<polygon fill="#b27541" stroke="#b27541" points="870.5,-495.11 867,-485.11 863.5,-495.11 870.5,-495.11"/>
</a>
</g>
<g id="a_edge19&#45;label"><a xlink:title="runtime.resetspinning &#45;&gt; runtime.wakep (512.56kB)">
<text text-anchor="middle" x="896" y="-510.8" font-family="Times,serif" font-size="14.00"> 512.56kB</text>
</a>
</g>
</g>
<!-- N20&#45;&gt;N19 -->
<g id="edge20" class="edge">
<title>N20&#45;&gt;N19</title>
<g id="a_edge20"><a xlink:title="runtime.schedule &#45;&gt; runtime.resetspinning (512.56kB)">
<path fill="none" stroke="#b27541" d="M867,-664.9C867,-644.63 867,-610.6 867,-586.59"/>
<polygon fill="#b27541" stroke="#b27541" points="870.5,-586.35 867,-576.35 863.5,-586.35 870.5,-586.35"/>
</a>
</g>
<g id="a_edge20&#45;label"><a xlink:title="runtime.schedule &#45;&gt; runtime.resetspinning (512.56kB)">
<text text-anchor="middle" x="896" y="-597.8" font-family="Times,serif" font-size="14.00"> 512.56kB</text>
</a>
</g>
</g>
<!-- N21 -->
<g id="node21" class="node">
<title>N21</title>
<g id="a_node21"><a xlink:title="runtime.startm (512.56kB)">
<polygon fill="#ede5de" stroke="#b27541" points="914,-358.5 820,-358.5 820,-322.5 914,-322.5 914,-358.5"/>
<text text-anchor="middle" x="867" y="-347.6" font-family="Times,serif" font-size="8.00">runtime</text>
<text text-anchor="middle" x="867" y="-338.6" font-family="Times,serif" font-size="8.00">startm</text>
<text text-anchor="middle" x="867" y="-329.6" font-family="Times,serif" font-size="8.00">0 of 512.56kB (12.65%)</text>
</a>
</g>
</g>
<!-- N21&#45;&gt;N16 -->
<g id="edge21" class="edge">
<title>N21&#45;&gt;N16</title>
<g id="a_edge21"><a xlink:title="runtime.startm &#45;&gt; runtime.newm (512.56kB)">
<path fill="none" stroke="#b27541" d="M867,-322.08C867,-305.56 867,-280.5 867,-261.32"/>
<polygon fill="#b27541" stroke="#b27541" points="870.5,-261.1 867,-251.1 863.5,-261.1 870.5,-261.1"/>
</a>
</g>
<g id="a_edge21&#45;label"><a xlink:title="runtime.startm &#45;&gt; runtime.newm (512.56kB)">
<text text-anchor="middle" x="896" y="-272.8" font-family="Times,serif" font-size="14.00"> 512.56kB</text>
</a>
</g>
</g>
<!-- N22&#45;&gt;N21 -->
<g id="edge22" class="edge">
<title>N22&#45;&gt;N21</title>
<g id="a_edge22"><a xlink:title="runtime.wakep &#45;&gt; runtime.startm (512.56kB)">
<path fill="none" stroke="#b27541" d="M867,-448.95C867,-428.3 867,-393.24 867,-368.81"/>
<polygon fill="#b27541" stroke="#b27541" points="870.5,-368.74 867,-358.74 863.5,-368.74 870.5,-368.74"/>
</a>
</g>
<g id="a_edge22&#45;label"><a xlink:title="runtime.wakep &#45;&gt; runtime.startm (512.56kB)">
<text text-anchor="middle" x="896" y="-408.3" font-family="Times,serif" font-size="14.00"> 512.56kB</text>
</a>
</g>
</g>
<!-- N23&#45;&gt;N4 -->
<g id="edge13" class="edge">
<title>N23&#45;&gt;N4</title>
<g id="a_edge13"><a xlink:title="runtime/pprof.(*profileBuilder).addCPUData &#45;&gt; runtime/pprof.(*profMap).lookup (516.01kB)">
<path fill="none" stroke="#b27540" d="M409.68,-957.32C405.09,-941.9 398.63,-920.24 392.52,-899.77"/>
<polygon fill="#b27540" stroke="#b27540" points="395.87,-898.75 389.66,-890.17 389.16,-900.75 395.87,-898.75"/>
</a>
</g>
<g id="a_edge13&#45;label"><a xlink:title="runtime/pprof.(*profileBuilder).addCPUData &#45;&gt; runtime/pprof.(*profMap).lookup (516.01kB)">
<text text-anchor="middle" x="429" y="-911.8" font-family="Times,serif" font-size="14.00"> 516.01kB</text>
</a>
</g>
</g>
<!-- N24&#45;&gt;N13 -->
<g id="edge9" class="edge">
<title>N24&#45;&gt;N13</title>
<g id="a_edge9"><a xlink:title="runtime/pprof.(*profileBuilder).build &#45;&gt; compress/gzip.(*Writer).Write (1485.59kB)">
<path fill="none" stroke="#b22e00" stroke-width="2" d="M543,-957.32C543,-934.67 543,-898.53 543,-872.54"/>
<polygon fill="#b22e00" stroke="#b22e00" stroke-width="2" points="546.5,-872.43 543,-862.43 539.5,-872.43 546.5,-872.43"/>
</a>
</g>
<g id="a_edge9&#45;label"><a xlink:title="runtime/pprof.(*profileBuilder).build &#45;&gt; compress/gzip.(*Writer).Write (1485.59kB)">
<text text-anchor="middle" x="575" y="-911.8" font-family="Times,serif" font-size="14.00"> 1485.59kB</text>
</a>
</g>
</g>
<!-- N25&#45;&gt;N7 -->
<g id="edge26" class="edge">
<title>N25&#45;&gt;N7</title>
<g id="a_edge26"><a xlink:title="runtime/pprof.newProfileBuilder &#45;&gt; compress/gzip.NewWriterLevel (512.09kB)">
<path fill="none" stroke="#b27541" d="M684.74,-961.36C688.7,-943.19 695.15,-913.67 700.66,-888.41"/>
<polygon fill="#b27541" stroke="#b27541" points="704.08,-889.13 702.79,-878.62 697.24,-887.64 704.08,-889.13"/>
</a>
</g>
<g id="a_edge26&#45;label"><a xlink:title="runtime/pprof.newProfileBuilder &#45;&gt; compress/gzip.NewWriterLevel (512.09kB)">
<text text-anchor="middle" x="725" y="-911.8" font-family="Times,serif" font-size="14.00"> 512.09kB</text>
</a>
</g>
</g>
</g>
</g></svg>
