<?xml version="1.0" encoding="UTF-8" standalone="no"?>
<!DOCTYPE svg PUBLIC "-//W3C//DTD SVG 1.1//EN"
 "http://www.w3.org/Graphics/SVG/1.1/DTD/svg11.dtd">
<!-- Generated by graphviz version 3.0.0 (20220226.1711)
 -->
<!-- Title: unnamed Pages: 1 -->
<svg width="100%" height="100%" xmlns="http://www.w3.org/2000/svg" xmlns:xlink="http://www.w3.org/1999/xlink">
<script type="text/ecmascript"><![CDATA[
/**
 *  SVGPan library 1.2.2
 * ======================
 *
 * Given an unique existing element with id "viewport" (or when missing, the
 * first g-element), including the library into any SVG adds the following
 * capabilities:
 *
 *  - Mouse panning
 *  - Mouse zooming (using the wheel)
 *  - Object dragging
 *
 * You can configure the behaviour of the pan/zoom/drag with the variables
 * listed in the CONFIGURATION section of this file.
 *
 * Known issues:
 *
 *  - Zooming (while panning) on Safari has still some issues
 *
 * Releases:
 *
 * 1.2.2, Tue Aug 30 17:21:56 CEST 2011, Andrea Leofreddi
 *	- Fixed viewBox on root tag (#7)
 *	- Improved zoom speed (#2)
 *
 * 1.2.1, Mon Jul  4 00:33:18 CEST 2011, Andrea Leofreddi
 *	- Fixed a regression with mouse wheel (now working on Firefox 5)
 *	- Working with viewBox attribute (#4)
 *	- Added "use strict;" and fixed resulting warnings (#5)
 *	- Added configuration variables, dragging is disabled by default (#3)
 *
 * 1.2, Sat Mar 20 08:42:50 GMT 2010, Zeng Xiaohui
 *	Fixed a bug with browser mouse handler interaction
 *
 * 1.1, Wed Feb  3 17:39:33 GMT 2010, Zeng Xiaohui
 *	Updated the zoom code to support the mouse wheel on Safari/Chrome
 *
 * 1.0, Andrea Leofreddi
 *	First release
 *
 * This code is licensed under the following BSD license:
 *
 * Copyright 2009-2017 Andrea Leofreddi <a.leofreddi@vleo.net>. All rights reserved.
 *
 * Redistribution and use in source and binary forms, with or without modification, are
 * permitted provided that the following conditions are met:
 *
 *    1. Redistributions of source code must retain the above copyright
 *       notice, this list of conditions and the following disclaimer.
 *    2. Redistributions in binary form must reproduce the above copyright
 *       notice, this list of conditions and the following disclaimer in the
 *       documentation and/or other materials provided with the distribution.
 *    3. Neither the name of the copyright holder nor the names of its
 *       contributors may be used to endorse or promote products derived from
 *       this software without specific prior written permission.
 *
 * THIS SOFTWARE IS PROVIDED BY COPYRIGHT HOLDERS AND CONTRIBUTORS ''AS IS'' AND ANY EXPRESS
 * OR IMPLIED WARRANTIES, INCLUDING, BUT NOT LIMITED TO, THE IMPLIED WARRANTIES OF MERCHANTABILITY
 * AND FITNESS FOR A PARTICULAR PURPOSE ARE DISCLAIMED. IN NO EVENT SHALL COPYRIGHT HOLDERS OR
 * CONTRIBUTORS BE LIABLE FOR ANY DIRECT, INDIRECT, INCIDENTAL, SPECIAL, EXEMPLARY, OR
 * CONSEQUENTIAL DAMAGES (INCLUDING, BUT NOT LIMITED TO, PROCUREMENT OF SUBSTITUTE GOODS OR
 * SERVICES; LOSS OF USE, DATA, OR PROFITS; OR BUSINESS INTERRUPTION) HOWEVER CAUSED AND ON
 * ANY THEORY OF LIABILITY, WHETHER IN CONTRACT, STRICT LIABILITY, OR TORT (INCLUDING
 * NEGLIGENCE OR OTHERWISE) ARISING IN ANY WAY OUT OF THE USE OF THIS SOFTWARE, EVEN IF
 * ADVISED OF THE POSSIBILITY OF SUCH DAMAGE.
 *
 * The views and conclusions contained in the software and documentation are those of the
 * authors and should not be interpreted as representing official policies, either expressed
 * or implied, of Andrea Leofreddi.
 */

"use strict";

/// CONFIGURATION
/// ====>

var enablePan = 1; // 1 or 0: enable or disable panning (default enabled)
var enableZoom = 1; // 1 or 0: enable or disable zooming (default enabled)
var enableDrag = 0; // 1 or 0: enable or disable dragging (default disabled)
var zoomScale = 0.2; // Zoom sensitivity

/// <====
/// END OF CONFIGURATION

var root = document.documentElement;

var state = 'none', svgRoot = null, stateTarget, stateOrigin, stateTf;

setupHandlers(root);

/**
 * Register handlers
 */
function setupHandlers(root){
	setAttributes(root, {
		"onmouseup" : "handleMouseUp(evt)",
		"onmousedown" : "handleMouseDown(evt)",
		"onmousemove" : "handleMouseMove(evt)",
		//"onmouseout" : "handleMouseUp(evt)", // Decomment this to stop the pan functionality when dragging out of the SVG element
	});

	if(navigator.userAgent.toLowerCase().indexOf('webkit') >= 0)
		window.addEventListener('mousewheel', handleMouseWheel, false); // Chrome/Safari
	else
		window.addEventListener('DOMMouseScroll', handleMouseWheel, false); // Others
}

/**
 * Retrieves the root element for SVG manipulation. The element is then cached into the svgRoot global variable.
 */
function getRoot(root) {
	if(svgRoot == null) {
		var r = root.getElementById("viewport") ? root.getElementById("viewport") : root.documentElement, t = r;

		while(t != root) {
			if(t.getAttribute("viewBox")) {
				setCTM(r, t.getCTM());

				t.removeAttribute("viewBox");
			}

			t = t.parentNode;
		}

		svgRoot = r;
	}

	return svgRoot;
}

/**
 * Instance an SVGPoint object with given event coordinates.
 */
function getEventPoint(evt) {
	var p = root.createSVGPoint();

	p.x = evt.clientX;
	p.y = evt.clientY;

	return p;
}

/**
 * Sets the current transform matrix of an element.
 */
function setCTM(element, matrix) {
	var s = "matrix(" + matrix.a + "," + matrix.b + "," + matrix.c + "," + matrix.d + "," + matrix.e + "," + matrix.f + ")";

	element.setAttribute("transform", s);
}

/**
 * Dumps a matrix to a string (useful for debug).
 */
function dumpMatrix(matrix) {
	var s = "[ " + matrix.a + ", " + matrix.c + ", " + matrix.e + "\n  " + matrix.b + ", " + matrix.d + ", " + matrix.f + "\n  0, 0, 1 ]";

	return s;
}

/**
 * Sets attributes of an element.
 */
function setAttributes(element, attributes){
	for (var i in attributes)
		element.setAttributeNS(null, i, attributes[i]);
}

/**
 * Handle mouse wheel event.
 */
function handleMouseWheel(evt) {
	if(!enableZoom)
		return;

	if(evt.preventDefault)
		evt.preventDefault();

	evt.returnValue = false;

	var svgDoc = evt.target.ownerDocument;

	var delta;

	if(evt.wheelDelta)
		delta = evt.wheelDelta / 360; // Chrome/Safari
	else
		delta = evt.detail / -9; // Mozilla

	var z = Math.pow(1 + zoomScale, delta);

	var g = getRoot(svgDoc);
	
	var p = getEventPoint(evt);

	p = p.matrixTransform(g.getCTM().inverse());

	// Compute new scale matrix in current mouse position
	var k = root.createSVGMatrix().translate(p.x, p.y).scale(z).translate(-p.x, -p.y);

        setCTM(g, g.getCTM().multiply(k));

	if(typeof(stateTf) == "undefined")
		stateTf = g.getCTM().inverse();

	stateTf = stateTf.multiply(k.inverse());
}

/**
 * Handle mouse move event.
 */
function handleMouseMove(evt) {
	if(evt.preventDefault)
		evt.preventDefault();

	evt.returnValue = false;

	var svgDoc = evt.target.ownerDocument;

	var g = getRoot(svgDoc);

	if(state == 'pan' && enablePan) {
		// Pan mode
		var p = getEventPoint(evt).matrixTransform(stateTf);

		setCTM(g, stateTf.inverse().translate(p.x - stateOrigin.x, p.y - stateOrigin.y));
	} else if(state == 'drag' && enableDrag) {
		// Drag mode
		var p = getEventPoint(evt).matrixTransform(g.getCTM().inverse());

		setCTM(stateTarget, root.createSVGMatrix().translate(p.x - stateOrigin.x, p.y - stateOrigin.y).multiply(g.getCTM().inverse()).multiply(stateTarget.getCTM()));

		stateOrigin = p;
	}
}

/**
 * Handle click event.
 */
function handleMouseDown(evt) {
	if(evt.preventDefault)
		evt.preventDefault();

	evt.returnValue = false;

	var svgDoc = evt.target.ownerDocument;

	var g = getRoot(svgDoc);

	if(
		evt.target.tagName == "svg"
		|| !enableDrag // Pan anyway when drag is disabled and the user clicked on an element
	) {
		// Pan mode
		state = 'pan';

		stateTf = g.getCTM().inverse();

		stateOrigin = getEventPoint(evt).matrixTransform(stateTf);
	} else {
		// Drag mode
		state = 'drag';

		stateTarget = evt.target;

		stateTf = g.getCTM().inverse();

		stateOrigin = getEventPoint(evt).matrixTransform(stateTf);
	}
}

/**
 * Handle mouse button release event.
 */
function handleMouseUp(evt) {
	if(evt.preventDefault)
		evt.preventDefault();

	evt.returnValue = false;

	var svgDoc = evt.target.ownerDocument;

	if(state == 'pan' || state == 'drag') {
		// Quit pan mode
		state = '';
	}
}
]]></script><g id="viewport" transform="scale(0.5,0.5) translate(0,0)"><g id="graph0" class="graph" transform="scale(1 1) rotate(0) translate(4 1107)">
<title>unnamed</title>
<polygon fill="white" stroke="transparent" points="-4,4 -4,-1107 1183,-1107 1183,4 -4,4"/>
<g id="clust1" class="cluster">
<title>cluster_L</title>
<polygon fill="none" stroke="black" points="8,-980 8,-1095 484,-1095 484,-980 8,-980"/>
</g>
<!-- Type: alloc_space -->
<g id="node1" class="node">
<title>Type: alloc_space</title>
<polygon fill="#f8f8f8" stroke="black" points="475.5,-1087 16.5,-1087 16.5,-988 475.5,-988 475.5,-1087"/>
<text text-anchor="start" x="24.5" y="-1070.2" font-family="Times,serif" font-size="16.00">Type: alloc_space</text>
<text text-anchor="start" x="24.5" y="-1052.2" font-family="Times,serif" font-size="16.00">Time: Mar 30, 2022 at 4:05pm (AEDT)</text>
<text text-anchor="start" x="24.5" y="-1034.2" font-family="Times,serif" font-size="16.00">Showing nodes accounting for 5656.08kB, 100% of 5656.08kB total</text>
<text text-anchor="start" x="24.5" y="-997.2" font-family="Times,serif" font-size="16.00">See https://git.io/JfYMW for how to read the graph</text>
</g>
<!-- N1 -->
<g id="node1" class="node">
<title>N1</title>
<g id="a_node1"><a xlink:title="runtime.allocm (2050.25kB)">
<polygon fill="#eddbd5" stroke="#b22e00" points="704.5,-174 485.5,-174 485.5,-88 704.5,-88 704.5,-174"/>
<text text-anchor="middle" x="595" y="-150.8" font-family="Times,serif" font-size="24.00">runtime</text>
<text text-anchor="middle" x="595" y="-124.8" font-family="Times,serif" font-size="24.00">allocm</text>
<text text-anchor="middle" x="595" y="-98.8" font-family="Times,serif" font-size="24.00">2050.25kB (36.25%)</text>
</a>
</g>
</g>
<!-- NN1_0 -->
<g id="NN1_0" class="node">
<title>NN1_0</title>
<g id="a_NN1_0"><a xlink:title="2050.25kB">
<polygon fill="#f8f8f8" stroke="black" points="622,-36 572,-36 568,-32 568,0 618,0 622,-4 622,-36"/>
<polyline fill="none" stroke="black" points="618,-32 568,-32 "/>
<polyline fill="none" stroke="black" points="618,-32 618,0 "/>
<polyline fill="none" stroke="black" points="618,-32 622,-36 "/>
<text text-anchor="middle" x="595" y="-16.1" font-family="Times,serif" font-size="8.00">1.12kB</text>
</a>
</g>
</g>
<!-- N1&#45;&gt;NN1_0 -->
<g id="edge1" class="edge">
<title>N1&#45;&gt;NN1_0</title>
<g id="a_edge1"><a xlink:title="2050.25kB">
<path fill="none" stroke="black" d="M595,-87.72C595,-73.88 595,-58.88 595,-46.44"/>
<polygon fill="black" stroke="black" points="598.5,-46.25 595,-36.25 591.5,-46.25 598.5,-46.25"/>
</a>
</g>
<g id="a_edge1&#45;label"><a xlink:title="2050.25kB">
<text text-anchor="middle" x="627" y="-57.8" font-family="Times,serif" font-size="14.00"> 2050.25kB</text>
</a>
</g>
</g>
<!-- N2 -->
<g id="node2" class="node">
<title>N2</title>
<g id="a_node2"><a xlink:title="runtime.malg (1536.61kB)">
<polygon fill="#edddd5" stroke="#b23900" points="903,-726 699,-726 699,-646 903,-646 903,-726"/>
<text text-anchor="middle" x="801" y="-704.4" font-family="Times,serif" font-size="22.00">runtime</text>
<text text-anchor="middle" x="801" y="-680.4" font-family="Times,serif" font-size="22.00">malg</text>
<text text-anchor="middle" x="801" y="-656.4" font-family="Times,serif" font-size="22.00">1536.61kB (27.17%)</text>
</a>
</g>
</g>
<!-- NN2_0 -->
<g id="NN2_0" class="node">
<title>NN2_0</title>
<g id="a_NN2_0"><a xlink:title="1536.61kB">
<polygon fill="#f8f8f8" stroke="black" points="828,-591 778,-591 774,-587 774,-555 824,-555 828,-559 828,-591"/>
<polyline fill="none" stroke="black" points="824,-587 774,-587 "/>
<polyline fill="none" stroke="black" points="824,-587 824,-555 "/>
<polyline fill="none" stroke="black" points="824,-587 828,-591 "/>
<text text-anchor="middle" x="801" y="-571.1" font-family="Times,serif" font-size="8.00">416B</text>
</a>
</g>
</g>
<!-- N2&#45;&gt;NN2_0 -->
<g id="edge2" class="edge">
<title>N2&#45;&gt;NN2_0</title>
<g id="a_edge2"><a xlink:title="1536.61kB">
<path fill="none" stroke="black" d="M801,-645.87C801,-631.09 801,-614.62 801,-601.17"/>
<polygon fill="black" stroke="black" points="804.5,-601.13 801,-591.13 797.5,-601.13 804.5,-601.13"/>
</a>
</g>
<g id="a_edge2&#45;label"><a xlink:title="1536.61kB">
<text text-anchor="middle" x="833" y="-616.8" font-family="Times,serif" font-size="14.00"> 1536.61kB</text>
</a>
</g>
</g>
<!-- N3 -->
<g id="node3" class="node">
<title>N3</title>
<g id="a_node3"><a xlink:title="compress/flate.NewWriter (1553.21kB)">
<polygon fill="#edddd5" stroke="#b23900" points="1069,-405 871,-405 871,-313 1069,-313 1069,-405"/>
<text text-anchor="middle" x="970" y="-385.8" font-family="Times,serif" font-size="19.00">flate</text>
<text text-anchor="middle" x="970" y="-364.8" font-family="Times,serif" font-size="19.00">NewWriter</text>
<text text-anchor="middle" x="970" y="-343.8" font-family="Times,serif" font-size="19.00">902.59kB (15.96%)</text>
<text text-anchor="middle" x="970" y="-322.8" font-family="Times,serif" font-size="19.00">of 1553.21kB (27.46%)</text>
</a>
</g>
</g>
<!-- NN3_0 -->
<g id="NN3_0" class="node">
<title>NN3_0</title>
<g id="a_NN3_0"><a xlink:title="902.59kB">
<polygon fill="#f8f8f8" stroke="black" points="997,-262 947,-262 943,-258 943,-226 993,-226 997,-230 997,-262"/>
<polyline fill="none" stroke="black" points="993,-258 943,-258 "/>
<polyline fill="none" stroke="black" points="993,-258 993,-226 "/>
<polyline fill="none" stroke="black" points="993,-258 997,-262 "/>
<text text-anchor="middle" x="970" y="-242.1" font-family="Times,serif" font-size="8.00">648kB</text>
</a>
</g>
</g>
<!-- N3&#45;&gt;NN3_0 -->
<g id="edge3" class="edge">
<title>N3&#45;&gt;NN3_0</title>
<g id="a_edge3"><a xlink:title="902.59kB">
<path fill="none" stroke="black" d="M970,-312.69C970,-299.06 970,-284.52 970,-272.42"/>
<polygon fill="black" stroke="black" points="973.5,-272.1 970,-262.1 966.5,-272.1 973.5,-272.1"/>
</a>
</g>
<g id="a_edge3&#45;label"><a xlink:title="902.59kB">
<text text-anchor="middle" x="999" y="-283.8" font-family="Times,serif" font-size="14.00"> 902.59kB</text>
</a>
</g>
</g>
<!-- N7 -->
<g id="node7" class="node">
<title>N7</title>
<g id="a_node7"><a xlink:title="compress/flate.(*compressor).init (650.62kB)">
<polygon fill="#ede6df" stroke="#b27c4b" points="1122,-175 964,-175 964,-87 1122,-87 1122,-175"/>
<text text-anchor="middle" x="1043" y="-156.6" font-family="Times,serif" font-size="18.00">flate</text>
<text text-anchor="middle" x="1043" y="-136.6" font-family="Times,serif" font-size="18.00">(*compressor)</text>
<text text-anchor="middle" x="1043" y="-116.6" font-family="Times,serif" font-size="18.00">init</text>
<text text-anchor="middle" x="1043" y="-96.6" font-family="Times,serif" font-size="18.00">650.62kB (11.50%)</text>
</a>
</g>
</g>
<!-- N3&#45;&gt;N7 -->
<g id="edge25" class="edge">
<title>N3&#45;&gt;N7</title>
<g id="a_edge25"><a xlink:title="compress/flate.NewWriter &#45;&gt; compress/flate.(*compressor).init (650.62kB)">
<path fill="none" stroke="#b27c4b" d="M1018.58,-312.71C1022.65,-307.1 1026.26,-301.16 1029,-295 1044.28,-260.7 1047.51,-218.36 1047.07,-185.43"/>
<polygon fill="#b27c4b" stroke="#b27c4b" points="1050.56,-185 1046.8,-175.09 1043.56,-185.18 1050.56,-185"/>
</a>
</g>
<g id="a_edge25&#45;label"><a xlink:title="compress/flate.NewWriter &#45;&gt; compress/flate.(*compressor).init (650.62kB)">
<text text-anchor="middle" x="1074" y="-240.3" font-family="Times,serif" font-size="14.00"> 650.62kB</text>
</a>
</g>
</g>
<!-- N4 -->
<g id="node4" class="node">
<title>N4</title>
<g id="a_node4"><a xlink:title="runtime.schedule (2050.25kB)">
<polygon fill="#eddbd5" stroke="#b22e00" points="644,-704 546,-704 546,-668 644,-668 644,-704"/>
<text text-anchor="middle" x="595" y="-693.1" font-family="Times,serif" font-size="8.00">runtime</text>
<text text-anchor="middle" x="595" y="-684.1" font-family="Times,serif" font-size="8.00">schedule</text>
<text text-anchor="middle" x="595" y="-675.1" font-family="Times,serif" font-size="8.00">0 of 2050.25kB (36.25%)</text>
</a>
</g>
</g>
<!-- N20 -->
<g id="node20" class="node">
<title>N20</title>
<g id="a_node20"><a xlink:title="runtime.resetspinning (2050.25kB)">
<polygon fill="#eddbd5" stroke="#b22e00" points="644,-591 546,-591 546,-555 644,-555 644,-591"/>
<text text-anchor="middle" x="595" y="-580.1" font-family="Times,serif" font-size="8.00">runtime</text>
<text text-anchor="middle" x="595" y="-571.1" font-family="Times,serif" font-size="8.00">resetspinning</text>
<text text-anchor="middle" x="595" y="-562.1" font-family="Times,serif" font-size="8.00">0 of 2050.25kB (36.25%)</text>
</a>
</g>
</g>
<!-- N4&#45;&gt;N20 -->
<g id="edge8" class="edge">
<title>N4&#45;&gt;N20</title>
<g id="a_edge8"><a xlink:title="runtime.schedule &#45;&gt; runtime.resetspinning (2050.25kB)">
<path fill="none" stroke="#b22e00" stroke-width="2" d="M595,-667.66C595,-649.9 595,-622.04 595,-601.32"/>
<polygon fill="#b22e00" stroke="#b22e00" stroke-width="2" points="598.5,-601.22 595,-591.22 591.5,-601.22 598.5,-601.22"/>
</a>
</g>
<g id="a_edge8&#45;label"><a xlink:title="runtime.schedule &#45;&gt; runtime.resetspinning (2050.25kB)">
<text text-anchor="middle" x="627" y="-616.8" font-family="Times,serif" font-size="14.00"> 2050.25kB</text>
</a>
</g>
</g>
<!-- N5 -->
<g id="node5" class="node">
<title>N5</title>
<g id="a_node5"><a xlink:title="runtime/pprof.profileWriter (1553.21kB)">
<polygon fill="#edddd5" stroke="#b23900" points="1019,-1055.5 921,-1055.5 921,-1019.5 1019,-1019.5 1019,-1055.5"/>
<text text-anchor="middle" x="970" y="-1044.6" font-family="Times,serif" font-size="8.00">pprof</text>
<text text-anchor="middle" x="970" y="-1035.6" font-family="Times,serif" font-size="8.00">profileWriter</text>
<text text-anchor="middle" x="970" y="-1026.6" font-family="Times,serif" font-size="8.00">0 of 1553.21kB (27.46%)</text>
</a>
</g>
</g>
<!-- N24 -->
<g id="node24" class="node">
<title>N24</title>
<g id="a_node24"><a xlink:title="runtime/pprof.(*profileBuilder).build (1553.21kB)">
<polygon fill="#edddd5" stroke="#b23900" points="1019,-937 921,-937 921,-893 1019,-893 1019,-937"/>
<text text-anchor="middle" x="970" y="-926.6" font-family="Times,serif" font-size="8.00">pprof</text>
<text text-anchor="middle" x="970" y="-917.6" font-family="Times,serif" font-size="8.00">(*profileBuilder)</text>
<text text-anchor="middle" x="970" y="-908.6" font-family="Times,serif" font-size="8.00">build</text>
<text text-anchor="middle" x="970" y="-899.6" font-family="Times,serif" font-size="8.00">0 of 1553.21kB (27.46%)</text>
</a>
</g>
</g>
<!-- N5&#45;&gt;N24 -->
<g id="edge16" class="edge">
<title>N5&#45;&gt;N24</title>
<g id="a_edge16"><a xlink:title="runtime/pprof.profileWriter &#45;&gt; runtime/pprof.(*profileBuilder).build (1553.21kB)">
<path fill="none" stroke="#b23900" stroke-width="2" d="M970,-1019.49C970,-1000.9 970,-970.69 970,-947.7"/>
<polygon fill="#b23900" stroke="#b23900" stroke-width="2" points="973.5,-947.39 970,-937.39 966.5,-947.39 973.5,-947.39"/>
</a>
</g>
<g id="a_edge16&#45;label"><a xlink:title="runtime/pprof.profileWriter &#45;&gt; runtime/pprof.(*profileBuilder).build (1553.21kB)">
<text text-anchor="middle" x="1002" y="-958.8" font-family="Times,serif" font-size="14.00"> 1553.21kB</text>
</a>
</g>
</g>
<!-- N6 -->
<g id="node6" class="node">
<title>N6</title>
<g id="a_node6"><a xlink:title="runtime.systemstack (1536.61kB)">
<polygon fill="#edddd5" stroke="#b23900" points="850,-1055.5 752,-1055.5 752,-1019.5 850,-1019.5 850,-1055.5"/>
<text text-anchor="middle" x="801" y="-1044.6" font-family="Times,serif" font-size="8.00">runtime</text>
<text text-anchor="middle" x="801" y="-1035.6" font-family="Times,serif" font-size="8.00">systemstack</text>
<text text-anchor="middle" x="801" y="-1026.6" font-family="Times,serif" font-size="8.00">0 of 1536.61kB (27.17%)</text>
</a>
</g>
</g>
<!-- N17 -->
<g id="node17" class="node">
<title>N17</title>
<g id="a_node17"><a xlink:title="runtime.newproc.func1 (1536.61kB)">
<polygon fill="#edddd5" stroke="#b23900" points="850,-937 752,-937 752,-893 850,-893 850,-937"/>
<text text-anchor="middle" x="801" y="-926.6" font-family="Times,serif" font-size="8.00">runtime</text>
<text text-anchor="middle" x="801" y="-917.6" font-family="Times,serif" font-size="8.00">newproc</text>
<text text-anchor="middle" x="801" y="-908.6" font-family="Times,serif" font-size="8.00">func1</text>
<text text-anchor="middle" x="801" y="-899.6" font-family="Times,serif" font-size="8.00">0 of 1536.61kB (27.17%)</text>
</a>
</g>
</g>
<!-- N6&#45;&gt;N17 -->
<g id="edge19" class="edge">
<title>N6&#45;&gt;N17</title>
<g id="a_edge19"><a xlink:title="runtime.systemstack &#45;&gt; runtime.newproc.func1 (1536.61kB)">
<path fill="none" stroke="#b23900" stroke-width="2" d="M801,-1019.49C801,-1000.9 801,-970.69 801,-947.7"/>
<polygon fill="#b23900" stroke="#b23900" stroke-width="2" points="804.5,-947.39 801,-937.39 797.5,-947.39 804.5,-947.39"/>
</a>
</g>
<g id="a_edge19&#45;label"><a xlink:title="runtime.systemstack &#45;&gt; runtime.newproc.func1 (1536.61kB)">
<text text-anchor="middle" x="833" y="-958.8" font-family="Times,serif" font-size="14.00"> 1536.61kB</text>
</a>
</g>
</g>
<!-- NN7_0 -->
<g id="NN7_0" class="node">
<title>NN7_0</title>
<g id="a_NN7_0"><a xlink:title="650.62kB">
<polygon fill="#f8f8f8" stroke="black" points="1070,-36 1020,-36 1016,-32 1016,0 1066,0 1070,-4 1070,-36"/>
<polyline fill="none" stroke="black" points="1066,-32 1016,-32 "/>
<polyline fill="none" stroke="black" points="1066,-32 1066,0 "/>
<polyline fill="none" stroke="black" points="1066,-32 1070,-36 "/>
<text text-anchor="middle" x="1043" y="-16.1" font-family="Times,serif" font-size="8.00">256kB</text>
</a>
</g>
</g>
<!-- N7&#45;&gt;NN7_0 -->
<g id="edge4" class="edge">
<title>N7&#45;&gt;NN7_0</title>
<g id="a_edge4"><a xlink:title="650.62kB">
<path fill="none" stroke="black" d="M1043,-86.77C1043,-73.25 1043,-58.71 1043,-46.58"/>
<polygon fill="black" stroke="black" points="1046.5,-46.22 1043,-36.22 1039.5,-46.22 1046.5,-46.22"/>
</a>
</g>
<g id="a_edge4&#45;label"><a xlink:title="650.62kB">
<text text-anchor="middle" x="1072" y="-57.8" font-family="Times,serif" font-size="14.00"> 650.62kB</text>
</a>
</g>
</g>
<!-- N8 -->
<g id="node8" class="node">
<title>N8</title>
<g id="a_node8"><a xlink:title="unicode.init (516.01kB)">
<polygon fill="#ede7e2" stroke="#b28a61" points="1179,-842 1037,-842 1037,-777 1179,-777 1179,-842"/>
<text text-anchor="middle" x="1108" y="-824.4" font-family="Times,serif" font-size="17.00">unicode</text>
<text text-anchor="middle" x="1108" y="-805.4" font-family="Times,serif" font-size="17.00">init</text>
<text text-anchor="middle" x="1108" y="-786.4" font-family="Times,serif" font-size="17.00">516.01kB (9.12%)</text>
</a>
</g>
</g>
<!-- NN8_0 -->
<g id="NN8_0" class="node">
<title>NN8_0</title>
<g id="a_NN8_0"><a xlink:title="516.01kB">
<polygon fill="#f8f8f8" stroke="black" points="1135,-704 1085,-704 1081,-700 1081,-668 1131,-668 1135,-672 1135,-704"/>
<polyline fill="none" stroke="black" points="1131,-700 1081,-700 "/>
<polyline fill="none" stroke="black" points="1131,-700 1131,-668 "/>
<polyline fill="none" stroke="black" points="1131,-700 1135,-704 "/>
<text text-anchor="middle" x="1108" y="-684.1" font-family="Times,serif" font-size="8.00">8kB</text>
</a>
</g>
</g>
<!-- N8&#45;&gt;NN8_0 -->
<g id="edge5" class="edge">
<title>N8&#45;&gt;NN8_0</title>
<g id="a_edge5"><a xlink:title="516.01kB">
<path fill="none" stroke="black" d="M1108,-776.89C1108,-757.5 1108,-732.91 1108,-714.35"/>
<polygon fill="black" stroke="black" points="1111.5,-714.21 1108,-704.21 1104.5,-714.21 1111.5,-714.21"/>
</a>
</g>
<g id="a_edge5&#45;label"><a xlink:title="516.01kB">
<text text-anchor="middle" x="1137" y="-747.8" font-family="Times,serif" font-size="14.00"> 516.01kB</text>
</a>
</g>
</g>
<!-- N9 -->
<g id="node9" class="node">
<title>N9</title>
<g id="a_node9"><a xlink:title="runtime.mcall (1025.12kB)">
<polygon fill="#ede0d7" stroke="#b25110" points="708,-933 610,-933 610,-897 708,-897 708,-933"/>
<text text-anchor="middle" x="659" y="-922.1" font-family="Times,serif" font-size="8.00">runtime</text>
<text text-anchor="middle" x="659" y="-913.1" font-family="Times,serif" font-size="8.00">mcall</text>
<text text-anchor="middle" x="659" y="-904.1" font-family="Times,serif" font-size="8.00">0 of 1025.12kB (18.12%)</text>
</a>
</g>
</g>
<!-- N19 -->
<g id="node19" class="node">
<title>N19</title>
<g id="a_node19"><a xlink:title="runtime.park_m (1025.12kB)">
<polygon fill="#ede0d7" stroke="#b25110" points="708,-827.5 610,-827.5 610,-791.5 708,-791.5 708,-827.5"/>
<text text-anchor="middle" x="659" y="-816.6" font-family="Times,serif" font-size="8.00">runtime</text>
<text text-anchor="middle" x="659" y="-807.6" font-family="Times,serif" font-size="8.00">park_m</text>
<text text-anchor="middle" x="659" y="-798.6" font-family="Times,serif" font-size="8.00">0 of 1025.12kB (18.12%)</text>
</a>
</g>
</g>
<!-- N9&#45;&gt;N19 -->
<g id="edge20" class="edge">
<title>N9&#45;&gt;N19</title>
<g id="a_edge20"><a xlink:title="runtime.mcall &#45;&gt; runtime.park_m (1025.12kB)">
<path fill="none" stroke="#b25110" d="M659,-896.91C659,-880.8 659,-856.41 659,-837.64"/>
<polygon fill="#b25110" stroke="#b25110" points="662.5,-837.62 659,-827.62 655.5,-837.62 662.5,-837.62"/>
</a>
</g>
<g id="a_edge20&#45;label"><a xlink:title="runtime.mcall &#45;&gt; runtime.park_m (1025.12kB)">
<text text-anchor="middle" x="691" y="-863.8" font-family="Times,serif" font-size="14.00"> 1025.12kB</text>
</a>
</g>
</g>
<!-- N10 -->
<g id="node10" class="node">
<title>N10</title>
<g id="a_node10"><a xlink:title="runtime.mstart (1025.12kB)">
<polygon fill="#ede0d7" stroke="#b25110" points="592,-1055.5 494,-1055.5 494,-1019.5 592,-1019.5 592,-1055.5"/>
<text text-anchor="middle" x="543" y="-1044.6" font-family="Times,serif" font-size="8.00">runtime</text>
<text text-anchor="middle" x="543" y="-1035.6" font-family="Times,serif" font-size="8.00">mstart</text>
<text text-anchor="middle" x="543" y="-1026.6" font-family="Times,serif" font-size="8.00">0 of 1025.12kB (18.12%)</text>
</a>
</g>
</g>
<!-- N14 -->
<g id="node14" class="node">
<title>N14</title>
<g id="a_node14"><a xlink:title="runtime.mstart0 (1025.12kB)">
<polygon fill="#ede0d7" stroke="#b25110" points="592,-933 494,-933 494,-897 592,-897 592,-933"/>
<text text-anchor="middle" x="543" y="-922.1" font-family="Times,serif" font-size="8.00">runtime</text>
<text text-anchor="middle" x="543" y="-913.1" font-family="Times,serif" font-size="8.00">mstart0</text>
<text text-anchor="middle" x="543" y="-904.1" font-family="Times,serif" font-size="8.00">0 of 1025.12kB (18.12%)</text>
</a>
</g>
</g>
<!-- N10&#45;&gt;N14 -->
<g id="edge21" class="edge">
<title>N10&#45;&gt;N14</title>
<g id="a_edge21"><a xlink:title="runtime.mstart &#45;&gt; runtime.mstart0 (1025.12kB)">
<path fill="none" stroke="#b25110" d="M543,-1019.49C543,-999.78 543,-967.01 543,-943.63"/>
<polygon fill="#b25110" stroke="#b25110" points="546.5,-943.31 543,-933.31 539.5,-943.31 546.5,-943.31"/>
</a>
</g>
<g id="a_edge21&#45;label"><a xlink:title="runtime.mstart &#45;&gt; runtime.mstart0 (1025.12kB)">
<text text-anchor="middle" x="575" y="-958.8" font-family="Times,serif" font-size="14.00"> 1025.12kB</text>
</a>
</g>
</g>
<!-- N11 -->
<g id="node11" class="node">
<title>N11</title>
<g id="a_node11"><a xlink:title="runtime.main (516.01kB)">
<polygon fill="#ede7e2" stroke="#b28a61" points="1153,-1055.5 1063,-1055.5 1063,-1019.5 1153,-1019.5 1153,-1055.5"/>
<text text-anchor="middle" x="1108" y="-1044.6" font-family="Times,serif" font-size="8.00">runtime</text>
<text text-anchor="middle" x="1108" y="-1035.6" font-family="Times,serif" font-size="8.00">main</text>
<text text-anchor="middle" x="1108" y="-1026.6" font-family="Times,serif" font-size="8.00">0 of 516.01kB (9.12%)</text>
</a>
</g>
</g>
<!-- N13 -->
<g id="node13" class="node">
<title>N13</title>
<g id="a_node13"><a xlink:title="runtime.doInit (516.01kB)">
<polygon fill="#ede7e2" stroke="#b28a61" points="1153,-933 1063,-933 1063,-897 1153,-897 1153,-933"/>
<text text-anchor="middle" x="1108" y="-922.1" font-family="Times,serif" font-size="8.00">runtime</text>
<text text-anchor="middle" x="1108" y="-913.1" font-family="Times,serif" font-size="8.00">doInit</text>
<text text-anchor="middle" x="1108" y="-904.1" font-family="Times,serif" font-size="8.00">0 of 516.01kB (9.12%)</text>
</a>
</g>
</g>
<!-- N11&#45;&gt;N13 -->
<g id="edge27" class="edge">
<title>N11&#45;&gt;N13</title>
<g id="a_edge27"><a xlink:title="runtime.main &#45;&gt; runtime.doInit (516.01kB)">
<path fill="none" stroke="#b28a61" d="M1108,-1019.49C1108,-999.78 1108,-967.01 1108,-943.63"/>
<polygon fill="#b28a61" stroke="#b28a61" points="1111.5,-943.31 1108,-933.31 1104.5,-943.31 1111.5,-943.31"/>
</a>
</g>
<g id="a_edge27&#45;label"><a xlink:title="runtime.main &#45;&gt; runtime.doInit (516.01kB)">
<text text-anchor="middle" x="1137" y="-958.8" font-family="Times,serif" font-size="14.00"> 516.01kB</text>
</a>
</g>
</g>
<!-- N12 -->
<g id="node12" class="node">
<title>N12</title>
<g id="a_node12"><a xlink:title="compress/gzip.(*Writer).Write (1553.21kB)">
<polygon fill="#edddd5" stroke="#b23900" points="1019,-500 921,-500 921,-456 1019,-456 1019,-500"/>
<text text-anchor="middle" x="970" y="-489.6" font-family="Times,serif" font-size="8.00">gzip</text>
<text text-anchor="middle" x="970" y="-480.6" font-family="Times,serif" font-size="8.00">(*Writer)</text>
<text text-anchor="middle" x="970" y="-471.6" font-family="Times,serif" font-size="8.00">Write</text>
<text text-anchor="middle" x="970" y="-462.6" font-family="Times,serif" font-size="8.00">0 of 1553.21kB (27.46%)</text>
</a>
</g>
</g>
<!-- N12&#45;&gt;N3 -->
<g id="edge11" class="edge">
<title>N12&#45;&gt;N3</title>
<g id="a_edge11"><a xlink:title="compress/gzip.(*Writer).Write &#45;&gt; compress/flate.NewWriter (1553.21kB)">
<path fill="none" stroke="#b23900" stroke-width="2" d="M970,-455.81C970,-444.47 970,-429.92 970,-415.6"/>
<polygon fill="#b23900" stroke="#b23900" stroke-width="2" points="973.5,-415.27 970,-405.27 966.5,-415.27 973.5,-415.27"/>
</a>
</g>
<g id="a_edge11&#45;label"><a xlink:title="compress/gzip.(*Writer).Write &#45;&gt; compress/flate.NewWriter (1553.21kB)">
<text text-anchor="middle" x="1002" y="-426.8" font-family="Times,serif" font-size="14.00"> 1553.21kB</text>
</a>
</g>
</g>
<!-- N13&#45;&gt;N8 -->
<g id="edge26" class="edge">
<title>N13&#45;&gt;N8</title>
<g id="a_edge26"><a xlink:title="runtime.doInit &#45;&gt; unicode.init (516.01kB)">
<path fill="none" stroke="#b28a61" d="M1108,-896.91C1108,-884.76 1108,-867.89 1108,-852.28"/>
<polygon fill="#b28a61" stroke="#b28a61" points="1111.5,-852.26 1108,-842.26 1104.5,-852.26 1111.5,-852.26"/>
</a>
</g>
<g id="a_edge26&#45;label"><a xlink:title="runtime.doInit &#45;&gt; unicode.init (516.01kB)">
<text text-anchor="middle" x="1137" y="-863.8" font-family="Times,serif" font-size="14.00"> 516.01kB</text>
</a>
</g>
</g>
<!-- N15 -->
<g id="node15" class="node">
<title>N15</title>
<g id="a_node15"><a xlink:title="runtime.mstart1 (1025.12kB)">
<polygon fill="#ede0d7" stroke="#b25110" points="592,-827.5 494,-827.5 494,-791.5 592,-791.5 592,-827.5"/>
<text text-anchor="middle" x="543" y="-816.6" font-family="Times,serif" font-size="8.00">runtime</text>
<text text-anchor="middle" x="543" y="-807.6" font-family="Times,serif" font-size="8.00">mstart1</text>
<text text-anchor="middle" x="543" y="-798.6" font-family="Times,serif" font-size="8.00">0 of 1025.12kB (18.12%)</text>
</a>
</g>
</g>
<!-- N14&#45;&gt;N15 -->
<g id="edge22" class="edge">
<title>N14&#45;&gt;N15</title>
<g id="a_edge22"><a xlink:title="runtime.mstart0 &#45;&gt; runtime.mstart1 (1025.12kB)">
<path fill="none" stroke="#b25110" d="M543,-896.91C543,-880.8 543,-856.41 543,-837.64"/>
<polygon fill="#b25110" stroke="#b25110" points="546.5,-837.62 543,-827.62 539.5,-837.62 546.5,-837.62"/>
</a>
</g>
<g id="a_edge22&#45;label"><a xlink:title="runtime.mstart0 &#45;&gt; runtime.mstart1 (1025.12kB)">
<text text-anchor="middle" x="575" y="-863.8" font-family="Times,serif" font-size="14.00"> 1025.12kB</text>
</a>
</g>
</g>
<!-- N15&#45;&gt;N4 -->
<g id="edge23" class="edge">
<title>N15&#45;&gt;N4</title>
<g id="a_edge23"><a xlink:title="runtime.mstart1 &#45;&gt; runtime.schedule (1025.12kB)">
<path fill="none" stroke="#b25110" d="M548.47,-791.29C552.8,-778.17 559.23,-759.72 566,-744 570.41,-733.75 575.83,-722.76 580.78,-713.2"/>
<polygon fill="#b25110" stroke="#b25110" points="583.97,-714.67 585.53,-704.19 577.77,-711.41 583.97,-714.67"/>
</a>
</g>
<g id="a_edge23&#45;label"><a xlink:title="runtime.mstart1 &#45;&gt; runtime.schedule (1025.12kB)">
<text text-anchor="middle" x="598" y="-747.8" font-family="Times,serif" font-size="14.00"> 1025.12kB</text>
</a>
</g>
</g>
<!-- N16 -->
<g id="node16" class="node">
<title>N16</title>
<g id="a_node16"><a xlink:title="runtime.newm (2050.25kB)">
<polygon fill="#eddbd5" stroke="#b22e00" points="644,-262 546,-262 546,-226 644,-226 644,-262"/>
<text text-anchor="middle" x="595" y="-251.1" font-family="Times,serif" font-size="8.00">runtime</text>
<text text-anchor="middle" x="595" y="-242.1" font-family="Times,serif" font-size="8.00">newm</text>
<text text-anchor="middle" x="595" y="-233.1" font-family="Times,serif" font-size="8.00">0 of 2050.25kB (36.25%)</text>
</a>
</g>
</g>
<!-- N16&#45;&gt;N1 -->
<g id="edge6" class="edge">
<title>N16&#45;&gt;N1</title>
<g id="a_edge6"><a xlink:title="runtime.newm &#45;&gt; runtime.allocm (2050.25kB)">
<path fill="none" stroke="#b22e00" stroke-width="2" d="M595,-225.66C595,-214.46 595,-199.25 595,-184.34"/>
<polygon fill="#b22e00" stroke="#b22e00" stroke-width="2" points="598.5,-184.12 595,-174.12 591.5,-184.12 598.5,-184.12"/>
</a>
</g>
<g id="a_edge6&#45;label"><a xlink:title="runtime.newm &#45;&gt; runtime.allocm (2050.25kB)">
<text text-anchor="middle" x="627" y="-196.8" font-family="Times,serif" font-size="14.00"> 2050.25kB</text>
</a>
</g>
</g>
<!-- N18 -->
<g id="node18" class="node">
<title>N18</title>
<g id="a_node18"><a xlink:title="runtime.newproc1 (1536.61kB)">
<polygon fill="#edddd5" stroke="#b23900" points="850,-827.5 752,-827.5 752,-791.5 850,-791.5 850,-827.5"/>
<text text-anchor="middle" x="801" y="-816.6" font-family="Times,serif" font-size="8.00">runtime</text>
<text text-anchor="middle" x="801" y="-807.6" font-family="Times,serif" font-size="8.00">newproc1</text>
<text text-anchor="middle" x="801" y="-798.6" font-family="Times,serif" font-size="8.00">0 of 1536.61kB (27.17%)</text>
</a>
</g>
</g>
<!-- N17&#45;&gt;N18 -->
<g id="edge17" class="edge">
<title>N17&#45;&gt;N18</title>
<g id="a_edge17"><a xlink:title="runtime.newproc.func1 &#45;&gt; runtime.newproc1 (1536.61kB)">
<path fill="none" stroke="#b23900" stroke-width="2" d="M801,-892.81C801,-876.84 801,-854.83 801,-837.58"/>
<polygon fill="#b23900" stroke="#b23900" stroke-width="2" points="804.5,-837.56 801,-827.56 797.5,-837.56 804.5,-837.56"/>
</a>
</g>
<g id="a_edge17&#45;label"><a xlink:title="runtime.newproc.func1 &#45;&gt; runtime.newproc1 (1536.61kB)">
<text text-anchor="middle" x="833" y="-863.8" font-family="Times,serif" font-size="14.00"> 1536.61kB</text>
</a>
</g>
</g>
<!-- N18&#45;&gt;N2 -->
<g id="edge18" class="edge">
<title>N18&#45;&gt;N2</title>
<g id="a_edge18"><a xlink:title="runtime.newproc1 &#45;&gt; runtime.malg (1536.61kB)">
<path fill="none" stroke="#b23900" stroke-width="2" d="M801,-791.35C801,-776.98 801,-755.73 801,-736.15"/>
<polygon fill="#b23900" stroke="#b23900" stroke-width="2" points="804.5,-736.1 801,-726.1 797.5,-736.1 804.5,-736.1"/>
</a>
</g>
<g id="a_edge18&#45;label"><a xlink:title="runtime.newproc1 &#45;&gt; runtime.malg (1536.61kB)">
<text text-anchor="middle" x="833" y="-747.8" font-family="Times,serif" font-size="14.00"> 1536.61kB</text>
</a>
</g>
</g>
<!-- N19&#45;&gt;N4 -->
<g id="edge24" class="edge">
<title>N19&#45;&gt;N4</title>
<g id="a_edge24"><a xlink:title="runtime.park_m &#45;&gt; runtime.schedule (1025.12kB)">
<path fill="none" stroke="#b25110" d="M651.95,-791.24C646.41,-778.08 638.27,-759.63 630,-744 624.49,-733.58 617.84,-722.45 611.83,-712.83"/>
<polygon fill="#b25110" stroke="#b25110" points="614.62,-710.7 606.31,-704.13 608.71,-714.45 614.62,-710.7"/>
</a>
</g>
<g id="a_edge24&#45;label"><a xlink:title="runtime.park_m &#45;&gt; runtime.schedule (1025.12kB)">
<text text-anchor="middle" x="669" y="-747.8" font-family="Times,serif" font-size="14.00"> 1025.12kB</text>
</a>
</g>
</g>
<!-- N22 -->
<g id="node22" class="node">
<title>N22</title>
<g id="a_node22"><a xlink:title="runtime.wakep (2050.25kB)">
<polygon fill="#eddbd5" stroke="#b22e00" points="644,-496 546,-496 546,-460 644,-460 644,-496"/>
<text text-anchor="middle" x="595" y="-485.1" font-family="Times,serif" font-size="8.00">runtime</text>
<text text-anchor="middle" x="595" y="-476.1" font-family="Times,serif" font-size="8.00">wakep</text>
<text text-anchor="middle" x="595" y="-467.1" font-family="Times,serif" font-size="8.00">0 of 2050.25kB (36.25%)</text>
</a>
</g>
</g>
<!-- N20&#45;&gt;N22 -->
<g id="edge7" class="edge">
<title>N20&#45;&gt;N22</title>
<g id="a_edge7"><a xlink:title="runtime.resetspinning &#45;&gt; runtime.wakep (2050.25kB)">
<path fill="none" stroke="#b22e00" stroke-width="2" d="M595,-554.94C595,-541.39 595,-522.18 595,-506.47"/>
<polygon fill="#b22e00" stroke="#b22e00" stroke-width="2" points="598.5,-506.26 595,-496.26 591.5,-506.26 598.5,-506.26"/>
</a>
</g>
<g id="a_edge7&#45;label"><a xlink:title="runtime.resetspinning &#45;&gt; runtime.wakep (2050.25kB)">
<text text-anchor="middle" x="627" y="-521.8" font-family="Times,serif" font-size="14.00"> 2050.25kB</text>
</a>
</g>
</g>
<!-- N21 -->
<g id="node21" class="node">
<title>N21</title>
<g id="a_node21"><a xlink:title="runtime.startm (2050.25kB)">
<polygon fill="#eddbd5" stroke="#b22e00" points="644,-377 546,-377 546,-341 644,-341 644,-377"/>
<text text-anchor="middle" x="595" y="-366.1" font-family="Times,serif" font-size="8.00">runtime</text>
<text text-anchor="middle" x="595" y="-357.1" font-family="Times,serif" font-size="8.00">startm</text>
<text text-anchor="middle" x="595" y="-348.1" font-family="Times,serif" font-size="8.00">0 of 2050.25kB (36.25%)</text>
</a>
</g>
</g>
<!-- N21&#45;&gt;N16 -->
<g id="edge9" class="edge">
<title>N21&#45;&gt;N16</title>
<g id="a_edge9"><a xlink:title="runtime.startm &#45;&gt; runtime.newm (2050.25kB)">
<path fill="none" stroke="#b22e00" stroke-width="2" d="M595,-340.84C595,-322.67 595,-293.72 595,-272.39"/>
<polygon fill="#b22e00" stroke="#b22e00" stroke-width="2" points="598.5,-272.32 595,-262.32 591.5,-272.32 598.5,-272.32"/>
</a>
</g>
<g id="a_edge9&#45;label"><a xlink:title="runtime.startm &#45;&gt; runtime.newm (2050.25kB)">
<text text-anchor="middle" x="627" y="-283.8" font-family="Times,serif" font-size="14.00"> 2050.25kB</text>
</a>
</g>
</g>
<!-- N22&#45;&gt;N21 -->
<g id="edge10" class="edge">
<title>N22&#45;&gt;N21</title>
<g id="a_edge10"><a xlink:title="runtime.wakep &#45;&gt; runtime.startm (2050.25kB)">
<path fill="none" stroke="#b22e00" stroke-width="2" d="M595,-459.99C595,-440.92 595,-409.75 595,-387.28"/>
<polygon fill="#b22e00" stroke="#b22e00" stroke-width="2" points="598.5,-387.03 595,-377.03 591.5,-387.03 598.5,-387.03"/>
</a>
</g>
<g id="a_edge10&#45;label"><a xlink:title="runtime.wakep &#45;&gt; runtime.startm (2050.25kB)">
<text text-anchor="middle" x="627" y="-426.8" font-family="Times,serif" font-size="14.00"> 2050.25kB</text>
</a>
</g>
</g>
<!-- N23 -->
<g id="node23" class="node">
<title>N23</title>
<g id="a_node23"><a xlink:title="runtime/pprof.(*profileBuilder).appendLocsForStack (1553.21kB)">
<polygon fill="#edddd5" stroke="#b23900" points="1019,-831.5 921,-831.5 921,-787.5 1019,-787.5 1019,-831.5"/>
<text text-anchor="middle" x="970" y="-821.1" font-family="Times,serif" font-size="8.00">pprof</text>
<text text-anchor="middle" x="970" y="-812.1" font-family="Times,serif" font-size="8.00">(*profileBuilder)</text>
<text text-anchor="middle" x="970" y="-803.1" font-family="Times,serif" font-size="8.00">appendLocsForStack</text>
<text text-anchor="middle" x="970" y="-794.1" font-family="Times,serif" font-size="8.00">0 of 1553.21kB (27.46%)</text>
</a>
</g>
</g>
<!-- N25 -->
<g id="node25" class="node">
<title>N25</title>
<g id="a_node25"><a xlink:title="runtime/pprof.(*profileBuilder).emitLocation (1553.21kB)">
<polygon fill="#edddd5" stroke="#b23900" points="1019,-708 921,-708 921,-664 1019,-664 1019,-708"/>
<text text-anchor="middle" x="970" y="-697.6" font-family="Times,serif" font-size="8.00">pprof</text>
<text text-anchor="middle" x="970" y="-688.6" font-family="Times,serif" font-size="8.00">(*profileBuilder)</text>
<text text-anchor="middle" x="970" y="-679.6" font-family="Times,serif" font-size="8.00">emitLocation</text>
<text text-anchor="middle" x="970" y="-670.6" font-family="Times,serif" font-size="8.00">0 of 1553.21kB (27.46%)</text>
</a>
</g>
</g>
<!-- N23&#45;&gt;N25 -->
<g id="edge12" class="edge">
<title>N23&#45;&gt;N25</title>
<g id="a_edge12"><a xlink:title="runtime/pprof.(*profileBuilder).appendLocsForStack &#45;&gt; runtime/pprof.(*profileBuilder).emitLocation (1553.21kB)">
<path fill="none" stroke="#b23900" stroke-width="2" d="M970,-787.34C970,-768.29 970,-740.04 970,-718.37"/>
<polygon fill="#b23900" stroke="#b23900" stroke-width="2" points="973.5,-718.33 970,-708.33 966.5,-718.33 973.5,-718.33"/>
</a>
</g>
<g id="a_edge12&#45;label"><a xlink:title="runtime/pprof.(*profileBuilder).appendLocsForStack &#45;&gt; runtime/pprof.(*profileBuilder).emitLocation (1553.21kB)">
<text text-anchor="middle" x="1002" y="-747.8" font-family="Times,serif" font-size="14.00"> 1553.21kB</text>
</a>
</g>
</g>
<!-- N24&#45;&gt;N23 -->
<g id="edge13" class="edge">
<title>N24&#45;&gt;N23</title>
<g id="a_edge13"><a xlink:title="runtime/pprof.(*profileBuilder).build &#45;&gt; runtime/pprof.(*profileBuilder).appendLocsForStack (1553.21kB)">
<path fill="none" stroke="#b23900" stroke-width="2" d="M970,-892.81C970,-878.15 970,-858.41 970,-841.94"/>
<polygon fill="#b23900" stroke="#b23900" stroke-width="2" points="973.5,-841.67 970,-831.67 966.5,-841.67 973.5,-841.67"/>
</a>
</g>
<g id="a_edge13&#45;label"><a xlink:title="runtime/pprof.(*profileBuilder).build &#45;&gt; runtime/pprof.(*profileBuilder).appendLocsForStack (1553.21kB)">
<text text-anchor="middle" x="1002" y="-863.8" font-family="Times,serif" font-size="14.00"> 1553.21kB</text>
</a>
</g>
</g>
<!-- N26 -->
<g id="node26" class="node">
<title>N26</title>
<g id="a_node26"><a xlink:title="runtime/pprof.(*profileBuilder).flush (1553.21kB)">
<polygon fill="#edddd5" stroke="#b23900" points="1019,-595 921,-595 921,-551 1019,-551 1019,-595"/>
<text text-anchor="middle" x="970" y="-584.6" font-family="Times,serif" font-size="8.00">pprof</text>
<text text-anchor="middle" x="970" y="-575.6" font-family="Times,serif" font-size="8.00">(*profileBuilder)</text>
<text text-anchor="middle" x="970" y="-566.6" font-family="Times,serif" font-size="8.00">flush</text>
<text text-anchor="middle" x="970" y="-557.6" font-family="Times,serif" font-size="8.00">0 of 1553.21kB (27.46%)</text>
</a>
</g>
</g>
<!-- N25&#45;&gt;N26 -->
<g id="edge14" class="edge">
<title>N25&#45;&gt;N26</title>
<g id="a_edge14"><a xlink:title="runtime/pprof.(*profileBuilder).emitLocation &#45;&gt; runtime/pprof.(*profileBuilder).flush (1553.21kB)">
<path fill="none" stroke="#b23900" stroke-width="2" d="M970,-663.86C970,-647.27 970,-623.93 970,-605.2"/>
<polygon fill="#b23900" stroke="#b23900" stroke-width="2" points="973.5,-605.06 970,-595.06 966.5,-605.06 973.5,-605.06"/>
</a>
</g>
<g id="a_edge14&#45;label"><a xlink:title="runtime/pprof.(*profileBuilder).emitLocation &#45;&gt; runtime/pprof.(*profileBuilder).flush (1553.21kB)">
<text text-anchor="middle" x="1002" y="-616.8" font-family="Times,serif" font-size="14.00"> 1553.21kB</text>
</a>
</g>
</g>
<!-- N26&#45;&gt;N12 -->
<g id="edge15" class="edge">
<title>N26&#45;&gt;N12</title>
<g id="a_edge15"><a xlink:title="runtime/pprof.(*profileBuilder).flush &#45;&gt; compress/gzip.(*Writer).Write (1553.21kB)">
<path fill="none" stroke="#b23900" stroke-width="2" d="M970,-550.9C970,-538.89 970,-523.62 970,-510.24"/>
<polygon fill="#b23900" stroke="#b23900" stroke-width="2" points="973.5,-510.02 970,-500.02 966.5,-510.02 973.5,-510.02"/>
</a>
</g>
<g id="a_edge15&#45;label"><a xlink:title="runtime/pprof.(*profileBuilder).flush &#45;&gt; compress/gzip.(*Writer).Write (1553.21kB)">
<text text-anchor="middle" x="1002" y="-521.8" font-family="Times,serif" font-size="14.00"> 1553.21kB</text>
</a>
</g>
</g>
</g>
</g></svg>
